# MagicaVoxel @ Ephtracy

# material
mtllib tree-05.mtl
usemtl palette

# normals
vn -1 0 0
vn 1 0 0
vn 0 0 1
vn 0 0 -1
vn 0 -1 0
vn 0 1 0

# texcoords
vt 0.908203 0.5
vt 0.939453 0.5
vt 0.970703 0.5

# verts
v -6.5 7 -2
v -6.5 7 -4
v -6.5 8 -2
v -6.5 8 -4
v -5.5 7 4
v -5.5 7 2
v -5.5 8 4
v -5.5 8 2
v -4.5 7 1
v -4.5 7 -0
v -4.5 7 -1
v -4.5 7 -2
v -4.5 7 -3
v -4.5 7 -4
v -4.5 8 1
v -4.5 8 -0
v -4.5 8 -1
v -4.5 8 -2
v -4.5 8 -3
v -4.5 8 -4
v -3.5 7 2
v -3.5 7 1
v -3.5 7 -0
v -3.5 7 -1
v -3.5 8 2
v -3.5 8 1
v -3.5 8 -0
v -3.5 8 -1
v -1.5 0 2
v -1.5 0 -1
v -1.5 3 2
v -1.5 3 1
v -1.5 3 -0
v -1.5 3 -1
v -1.5 4 -0
v -1.5 4 -1
v -1.5 5 -0
v -1.5 5 -1
v -1.5 6 -0
v -1.5 6 -1
v -1.5 7 2
v -1.5 7 1
v -1.5 7 -0
v -1.5 7 -1
v -1.5 7 -2
v -1.5 8 2
v -1.5 8 1
v -1.5 8 -0
v -1.5 8 -1
v -1.5 8 -2
v -1.5 9 2
v -1.5 9 1
v -1.5 9 -0
v -1.5 10 -0
v -1.5 10 -1
v -1.5 11 1
v -1.5 11 -0
v -0.5 3 2
v -0.5 3 1
v -0.5 3 -0
v -0.5 3 -1
v -0.5 4 4
v -0.5 4 2
v -0.5 4 -0
v -0.5 4 -1
v -0.5 5 5
v -0.5 5 4
v -0.5 5 3
v -0.5 5 2
v -0.5 5 -0
v -0.5 5 -1
v -0.5 5 -3
v -0.5 5 -4
v -0.5 6 5
v -0.5 6 3
v -0.5 6 -0
v -0.5 6 -1
v -0.5 6 -3
v -0.5 6 -4
v -0.5 6 -5
v -0.5 7 2
v -0.5 7 1
v -0.5 7 -2
v -0.5 7 -3
v -0.5 7 -5
v -0.5 8 -1
v -0.5 8 -2
v -0.5 8 -3
v -0.5 8 -4
v -0.5 9 2
v -0.5 9 1
v -0.5 9 -1
v -0.5 9 -2
v -0.5 10 -0
v -0.5 10 -1
v -0.5 10 -2
v -0.5 10 -4
v -0.5 11 3
v -0.5 11 2
v -0.5 11 1
v -0.5 11 -0
v -0.5 11 -1
v -0.5 12 3
v -0.5 12 2
v -0.5 13 3
v -0.5 13 2
v -0.5 13 1
v -0.5 13 -0
v -0.5 14 3
v -0.5 14 1
v 0.5 6 7
v 0.5 6 5
v 0.5 6 4
v 0.5 6 -5
v 0.5 6 -7
v 0.5 7 7
v 0.5 7 4
v 0.5 7 -5
v 0.5 7 -7
v 0.5 10 -3
v 0.5 10 -4
v 0.5 10 -5
v 0.5 11 -3
v 0.5 11 -5
v -5.5 7 -3
v -5.5 7 -4
v -5.5 8 -3
v -5.5 8 -4
v -4.5 7 4
v -4.5 7 3
v -4.5 8 4
v -4.5 8 3
v -3.5 7 -2
v -3.5 7 -4
v -3.5 8 -2
v -3.5 8 -4
v -2.5 7 3
v -2.5 7 2
v -2.5 7 1
v -2.5 7 -0
v -2.5 7 -2
v -2.5 8 3
v -2.5 8 2
v -2.5 8 1
v -2.5 8 -0
v -2.5 8 -2
v 0.5 0 2
v 0.5 0 1
v 0.5 4 3
v 0.5 4 2
v 0.5 4 1
v 0.5 4 -0
v 0.5 4 -1
v 0.5 5 3
v 0.5 5 2
v 0.5 5 1
v 0.5 5 -0
v 0.5 5 -1
v 0.5 5 -3
v 0.5 5 -4
v 0.5 6 1
v 0.5 6 -0
v 0.5 6 -1
v 0.5 6 -3
v 0.5 6 -4
v 0.5 7 1
v 0.5 7 -0
v 0.5 7 -1
v 0.5 7 -2
v 0.5 7 -3
v 0.5 7 -4
v 0.5 8 2
v 0.5 8 1
v 0.5 8 -1
v 0.5 8 -2
v 0.5 8 -3
v 0.5 8 -4
v 0.5 9 1
v 0.5 9 -0
v 0.5 9 -1
v 0.5 9 -3
v 0.5 9 -4
v 0.5 11 3
v 0.5 11 2
v 0.5 11 -0
v 0.5 11 -1
v 0.5 12 3
v 0.5 12 2
v 0.5 12 1
v 0.5 12 -0
v 0.5 13 3
v 0.5 13 2
v 0.5 13 1
v 0.5 13 -0
v 0.5 14 3
v 0.5 14 1
v 1.5 0 1
v 1.5 0 -1
v 1.5 3 -0
v 1.5 3 -1
v 1.5 4 4
v 1.5 4 3
v 1.5 4 1
v 1.5 4 -0
v 1.5 4 -1
v 1.5 5 5
v 1.5 5 4
v 1.5 5 3
v 1.5 5 1
v 1.5 5 -0
v 1.5 6 7
v 1.5 6 5
v 1.5 6 4
v 1.5 6 3
v 1.5 6 1
v 1.5 6 -0
v 1.5 6 -4
v 1.5 6 -7
v 1.5 7 7
v 1.5 7 4
v 1.5 7 1
v 1.5 7 -0
v 1.5 7 -2
v 1.5 7 -3
v 1.5 7 -4
v 1.5 7 -7
v 1.5 8 -1
v 1.5 8 -2
v 1.5 9 1
v 1.5 9 -0
v 1.5 9 -1
v 1.5 9 -2
v 1.5 9 -3
v 1.5 9 -4
v 1.5 10 -2
v 1.5 10 -3
v 1.5 10 -4
v 1.5 10 -5
v 1.5 11 -4
v 1.5 11 -5
v 1.5 12 2
v 1.5 12 1
v 1.5 12 -0
v 1.5 13 2
v 1.5 13 1
v 2.5 8 1
v 2.5 8 -0
v 2.5 9 1
v 2.5 9 -0
v 2.5 10 -3
v 2.5 10 -4
v 2.5 11 -3
v 2.5 11 -4
v 3.5 8 -0
v 3.5 8 -1
v 3.5 9 -0
v 3.5 9 -1
v 5.5 7 1
v 5.5 7 -0
v 5.5 8 1
v 5.5 8 -0
v 6.5 7 -0
v 6.5 7 -1
v 6.5 8 -0
v 6.5 8 -1
v 0.5 6 7
v 0.5 7 7
v 1.5 6 7
v 1.5 7 7
v -0.5 5 5
v -0.5 6 5
v 0.5 5 5
v 0.5 6 5
v 1.5 5 5
v 1.5 6 5
v -5.5 7 4
v -5.5 8 4
v -4.5 7 4
v -4.5 8 4
v -0.5 4 4
v -0.5 5 4
v 0.5 5 4
v 1.5 4 4
v 1.5 5 4
v -4.5 7 3
v -4.5 8 3
v -2.5 7 3
v -2.5 8 3
v -0.5 11 3
v -0.5 12 3
v -0.5 13 3
v -0.5 14 3
v 0.5 11 3
v 0.5 12 3
v 0.5 13 3
v 0.5 14 3
v -1.5 0 2
v -1.5 3 2
v -1.5 7 2
v -1.5 8 2
v -1.5 9 2
v -0.5 3 2
v -0.5 4 2
v -0.5 5 2
v -0.5 7 2
v -0.5 9 2
v -0.5 11 2
v -0.5 12 2
v -0.5 13 2
v 0.5 0 2
v 0.5 4 2
v 0.5 5 2
v 0.5 8 2
v 0.5 11 2
v 0.5 12 2
v 0.5 13 2
v 1.5 12 2
v 1.5 13 2
v -4.5 7 1
v -4.5 8 1
v -3.5 7 1
v -3.5 8 1
v -2.5 7 1
v -2.5 8 1
v -1.5 3 1
v -1.5 7 1
v -1.5 8 1
v -1.5 9 1
v -1.5 11 1
v -0.5 3 1
v -0.5 7 1
v -0.5 9 1
v -0.5 11 1
v 0.5 0 1
v 0.5 4 1
v 0.5 5 1
v 0.5 6 1
v 0.5 7 1
v 0.5 8 1
v 0.5 9 1
v 0.5 12 1
v 1.5 0 1
v 1.5 4 1
v 1.5 5 1
v 1.5 6 1
v 1.5 7 1
v 1.5 9 1
v 1.5 12 1
v 2.5 8 1
v 2.5 9 1
v 5.5 7 1
v 5.5 8 1
v 2.5 8 -0
v 2.5 9 -0
v 3.5 8 -0
v 3.5 9 -0
v 5.5 7 -0
v 5.5 8 -0
v 6.5 7 -0
v 6.5 8 -0
v -4.5 7 -1
v -4.5 8 -1
v -3.5 7 -1
v -3.5 8 -1
v -6.5 7 -2
v -6.5 8 -2
v -4.5 7 -2
v -4.5 8 -2
v -0.5 9 -2
v -0.5 10 -2
v 0.5 7 -2
v 0.5 8 -2
v 1.5 7 -2
v 1.5 8 -2
v 1.5 9 -2
v 1.5 10 -2
v -0.5 6 -3
v -0.5 7 -3
v 0.5 6 -3
v 0.5 7 -3
v 0.5 10 -3
v 0.5 11 -3
v 1.5 10 -3
v 2.5 10 -3
v 2.5 11 -3
v 0.5 6 -4
v 0.5 7 -4
v 1.5 6 -4
v 1.5 7 -4
v 0.5 6 4
v 0.5 7 4
v 1.5 6 4
v 1.5 7 4
v -0.5 5 3
v -0.5 6 3
v 0.5 4 3
v 0.5 5 3
v 0.5 6 3
v 1.5 4 3
v 1.5 5 3
v 1.5 6 3
v -5.5 7 2
v -5.5 8 2
v -3.5 7 2
v -3.5 8 2
v -0.5 13 1
v -0.5 14 1
v 0.5 12 1
v 0.5 13 1
v 0.5 14 1
v 1.5 12 1
v 1.5 13 1
v -4.5 7 -0
v -4.5 8 -0
v -3.5 7 -0
v -3.5 8 -0
v -2.5 7 -0
v -2.5 8 -0
v -1.5 3 -0
v -1.5 4 -0
v -1.5 5 -0
v -1.5 6 -0
v -1.5 7 -0
v -1.5 8 -0
v -1.5 10 -0
v -1.5 11 -0
v -0.5 3 -0
v -0.5 4 -0
v -0.5 5 -0
v -0.5 6 -0
v -0.5 10 -0
v -0.5 11 -0
v -0.5 13 -0
v 0.5 4 -0
v 0.5 5 -0
v 0.5 6 -0
v 0.5 7 -0
v 0.5 9 -0
v 0.5 11 -0
v 0.5 12 -0
v 0.5 13 -0
v 1.5 4 -0
v 1.5 5 -0
v 1.5 6 -0
v 1.5 7 -0
v 1.5 9 -0
v 1.5 12 -0
v -1.5 0 -1
v -1.5 3 -1
v -1.5 4 -1
v -1.5 5 -1
v -1.5 6 -1
v -1.5 7 -1
v -1.5 8 -1
v -1.5 10 -1
v -0.5 3 -1
v -0.5 4 -1
v -0.5 5 -1
v -0.5 6 -1
v -0.5 8 -1
v -0.5 9 -1
v -0.5 10 -1
v -0.5 11 -1
v 0.5 3 -1
v 0.5 4 -1
v 0.5 5 -1
v 0.5 6 -1
v 0.5 7 -1
v 0.5 8 -1
v 0.5 9 -1
v 0.5 11 -1
v 1.5 0 -1
v 1.5 3 -1
v 1.5 4 -1
v 1.5 7 -1
v 1.5 8 -1
v 1.5 9 -1
v 2.5 8 -1
v 2.5 9 -1
v 3.5 8 -1
v 3.5 9 -1
v 6.5 7 -1
v 6.5 8 -1
v -3.5 7 -2
v -3.5 8 -2
v -2.5 7 -2
v -2.5 8 -2
v -1.5 7 -2
v -1.5 8 -2
v -0.5 7 -2
v -0.5 8 -2
v -5.5 7 -3
v -5.5 8 -3
v -4.5 7 -3
v -4.5 8 -3
v -0.5 7 -3
v -0.5 8 -3
v 0.5 7 -3
v 0.5 8 -3
v 0.5 9 -3
v 1.5 7 -3
v 1.5 9 -3
v -6.5 7 -4
v -6.5 8 -4
v -5.5 7 -4
v -5.5 8 -4
v -4.5 7 -4
v -4.5 8 -4
v -3.5 7 -4
v -3.5 8 -4
v -0.5 5 -4
v -0.5 6 -4
v -0.5 8 -4
v -0.5 10 -4
v 0.5 5 -4
v 0.5 6 -4
v 0.5 8 -4
v 0.5 9 -4
v 0.5 10 -4
v 1.5 9 -4
v 1.5 10 -4
v 1.5 11 -4
v 2.5 10 -4
v 2.5 11 -4
v -0.5 6 -5
v -0.5 7 -5
v 0.5 6 -5
v 0.5 7 -5
v 0.5 10 -5
v 0.5 11 -5
v 1.5 10 -5
v 1.5 11 -5
v 0.5 6 -7
v 0.5 7 -7
v 1.5 6 -7
v 1.5 7 -7
v -1.5 0 2
v 0.5 0 2
v 0.5 0 1
v 1.5 0 1
v -1.5 0 -1
v 1.5 0 -1
v -0.5 4 4
v 1.5 4 4
v 0.5 4 3
v 1.5 4 3
v -0.5 4 2
v 0.5 4 2
v -1.5 4 -0
v -0.5 4 -0
v -1.5 4 -1
v -0.5 4 -1
v -0.5 5 5
v 0.5 5 5
v 1.5 5 5
v -0.5 5 4
v 0.5 5 4
v 1.5 5 4
v -0.5 5 -1
v 0.5 5 -1
v -0.5 5 -3
v 0.5 5 -3
v -0.5 5 -4
v 0.5 5 -4
v 0.5 6 7
v 1.5 6 7
v 0.5 6 5
v 1.5 6 5
v 0.5 6 1
v 1.5 6 1
v -1.5 6 -0
v -0.5 6 -0
v 0.5 6 -0
v 1.5 6 -0
v -1.5 6 -1
v -0.5 6 -1
v -0.5 6 -4
v 0.5 6 -4
v 1.5 6 -4
v -0.5 6 -5
v 0.5 6 -5
v 0.5 6 -7
v 1.5 6 -7
v -5.5 7 4
v -4.5 7 4
v -4.5 7 3
v -2.5 7 3
v -5.5 7 2
v -3.5 7 2
v -2.5 7 2
v -1.5 7 2
v -0.5 7 2
v -4.5 7 1
v -3.5 7 1
v -2.5 7 1
v -1.5 7 1
v -0.5 7 1
v 1.5 7 1
v 5.5 7 1
v -4.5 7 -0
v -3.5 7 -0
v -2.5 7 -0
v -1.5 7 -0
v 0.5 7 -0
v 1.5 7 -0
v 5.5 7 -0
v 6.5 7 -0
v -4.5 7 -1
v -3.5 7 -1
v -1.5 7 -1
v 0.5 7 -1
v 1.5 7 -1
v 6.5 7 -1
v -6.5 7 -2
v -4.5 7 -2
v -3.5 7 -2
v -2.5 7 -2
v -1.5 7 -2
v -0.5 7 -2
v 0.5 7 -2
v 1.5 7 -2
v -5.5 7 -3
v -4.5 7 -3
v -0.5 7 -3
v 0.5 7 -3
v 1.5 7 -3
v -6.5 7 -4
v -5.5 7 -4
v -4.5 7 -4
v -3.5 7 -4
v 0.5 8 -1
v 1.5 8 -1
v 0.5 8 -2
v 1.5 8 -2
v -0.5 8 -3
v 0.5 8 -3
v -0.5 8 -4
v 0.5 8 -4
v 0.5 9 -3
v 1.5 9 -3
v 0.5 9 -4
v 1.5 9 -4
v 1.5 10 -3
v 2.5 10 -3
v 0.5 10 -4
v 1.5 10 -4
v 2.5 10 -4
v 0.5 10 -5
v 1.5 10 -5
v -0.5 11 3
v 0.5 11 3
v -0.5 11 2
v 0.5 11 2
v 0.5 12 2
v 1.5 12 2
v 0.5 12 1
v 1.5 12 1
v -0.5 13 3
v 0.5 13 3
v -0.5 13 2
v 0.5 13 2
v -1.5 3 2
v -0.5 3 2
v -1.5 3 1
v -0.5 3 1
v -1.5 3 -0
v -0.5 3 -0
v -1.5 3 -1
v -0.5 3 -1
v 0.5 4 -0
v 1.5 4 -0
v 0.5 4 -1
v 1.5 4 -1
v -0.5 5 3
v 0.5 5 3
v -0.5 5 2
v 0.5 5 2
v 0.5 5 1
v 1.5 5 1
v -1.5 5 -0
v -0.5 5 -0
v 0.5 5 -0
v 1.5 5 -0
v -1.5 5 -1
v -0.5 5 -1
v -0.5 6 5
v 0.5 6 5
v 0.5 6 4
v 1.5 6 4
v -0.5 6 3
v 0.5 6 3
v 1.5 6 3
v -0.5 6 -1
v 0.5 6 -1
v -0.5 6 -3
v 0.5 6 -3
v 0.5 7 7
v 1.5 7 7
v 0.5 7 4
v 1.5 7 4
v -0.5 7 -3
v 0.5 7 -3
v 0.5 7 -4
v 1.5 7 -4
v -0.5 7 -5
v 0.5 7 -5
v 0.5 7 -7
v 1.5 7 -7
v -5.5 8 4
v -4.5 8 4
v -4.5 8 3
v -2.5 8 3
v -5.5 8 2
v -3.5 8 2
v -2.5 8 2
v -4.5 8 1
v -3.5 8 1
v -2.5 8 1
v -1.5 8 1
v 2.5 8 1
v 5.5 8 1
v -4.5 8 -0
v -3.5 8 -0
v -2.5 8 -0
v -1.5 8 -0
v 2.5 8 -0
v 3.5 8 -0
v 5.5 8 -0
v 6.5 8 -0
v -4.5 8 -1
v -3.5 8 -1
v -1.5 8 -1
v -0.5 8 -1
v 3.5 8 -1
v 6.5 8 -1
v -6.5 8 -2
v -4.5 8 -2
v -3.5 8 -2
v -2.5 8 -2
v -1.5 8 -2
v -0.5 8 -2
v -5.5 8 -3
v -4.5 8 -3
v -6.5 8 -4
v -5.5 8 -4
v -4.5 8 -4
v -3.5 8 -4
v -1.5 9 2
v -0.5 9 2
v -1.5 9 1
v -0.5 9 1
v 1.5 9 1
v 2.5 9 1
v 0.5 9 -0
v 1.5 9 -0
v 2.5 9 -0
v 3.5 9 -0
v -0.5 9 -1
v 0.5 9 -1
v 1.5 9 -1
v 2.5 9 -1
v 3.5 9 -1
v -0.5 9 -2
v 1.5 9 -2
v -1.5 10 -0
v -0.5 10 -0
v -1.5 10 -1
v -0.5 10 -1
v -0.5 10 -2
v 1.5 10 -2
v 0.5 10 -3
v 1.5 10 -3
v -0.5 10 -4
v 0.5 10 -4
v -1.5 11 1
v -0.5 11 1
v -1.5 11 -0
v -0.5 11 -0
v 0.5 11 -0
v -0.5 11 -1
v 0.5 11 -1
v 0.5 11 -3
v 2.5 11 -3
v 1.5 11 -4
v 2.5 11 -4
v 0.5 11 -5
v 1.5 11 -5
v -0.5 12 3
v 0.5 12 3
v -0.5 12 2
v 0.5 12 2
v 0.5 12 1
v 1.5 12 1
v 0.5 12 -0
v 1.5 12 -0
v 0.5 13 2
v 1.5 13 2
v -0.5 13 1
v 0.5 13 1
v 1.5 13 1
v -0.5 13 -0
v 0.5 13 -0
v -0.5 14 3
v 0.5 14 3
v -0.5 14 1
v 0.5 14 1

# faces
f 3/2/1 2/2/1 1/2/1
f 4/2/1 2/2/1 3/2/1
f 7/3/1 6/3/1 5/3/1
f 8/3/1 6/3/1 7/3/1
f 15/3/1 10/3/1 9/3/1
f 16/3/1 10/3/1 15/3/1
f 17/3/1 12/3/1 11/3/1
f 18/3/1 12/3/1 17/3/1
f 19/3/1 14/3/1 13/3/1
f 20/3/1 14/3/1 19/3/1
f 25/2/1 22/2/1 21/2/1
f 26/2/1 22/2/1 25/2/1
f 27/3/1 24/3/1 23/3/1
f 28/3/1 24/3/1 27/3/1
f 31/3/1 30/3/1 29/3/1
f 32/3/1 30/3/1 31/3/1
f 33/3/1 30/3/1 32/3/1
f 34/3/1 30/3/1 33/3/1
f 35/3/1 33/3/1 32/3/1
f 37/3/1 35/3/1 32/3/1
f 37/2/1 36/2/1 35/2/1
f 38/2/1 36/2/1 37/2/1
f 39/3/1 37/3/1 32/3/1
f 42/3/1 39/3/1 32/3/1
f 43/2/1 40/2/1 39/2/1
f 43/3/1 39/3/1 42/3/1
f 44/2/1 40/2/1 43/2/1
f 46/3/1 42/3/1 41/3/1
f 47/3/1 42/3/1 46/3/1
f 48/3/1 44/3/1 43/3/1
f 49/1/1 45/1/1 44/1/1
f 49/3/1 44/3/1 48/3/1
f 50/1/1 45/1/1 49/1/1
f 51/2/1 47/2/1 46/2/1
f 52/3/1 48/3/1 47/3/1
f 52/2/1 47/2/1 51/2/1
f 53/2/1 49/2/1 48/2/1
f 53/3/1 48/3/1 52/3/1
f 54/2/1 49/2/1 53/2/1
f 54/2/1 53/2/1 52/2/1
f 55/2/1 49/2/1 54/2/1
f 56/2/1 54/2/1 52/2/1
f 57/2/1 54/2/1 56/2/1
f 63/3/1 59/3/1 58/3/1
f 64/3/1 61/3/1 60/3/1
f 65/3/1 61/3/1 64/3/1
f 67/2/1 63/2/1 62/2/1
f 68/2/1 63/2/1 67/2/1
f 69/3/1 59/3/1 63/3/1
f 69/2/1 63/2/1 68/2/1
f 74/2/1 68/2/1 67/2/1
f 74/2/1 67/2/1 66/2/1
f 75/2/1 68/2/1 74/2/1
f 76/3/1 71/3/1 70/3/1
f 77/2/1 72/2/1 71/2/1
f 77/3/1 71/3/1 76/3/1
f 78/3/1 73/3/1 72/3/1
f 78/2/1 72/2/1 77/2/1
f 79/3/1 73/3/1 78/3/1
f 81/3/1 59/3/1 69/3/1
f 82/3/1 59/3/1 81/3/1
f 84/3/1 80/3/1 79/3/1
f 84/3/1 79/3/1 78/3/1
f 85/3/1 80/3/1 84/3/1
f 87/1/1 84/1/1 83/1/1
f 88/1/1 84/1/1 87/1/1
f 92/1/1 87/1/1 86/1/1
f 92/1/1 88/1/1 87/1/1
f 92/1/1 89/1/1 88/1/1
f 93/1/1 89/1/1 92/1/1
f 96/1/1 89/1/1 93/1/1
f 97/1/1 89/1/1 96/1/1
f 99/2/1 91/2/1 90/2/1
f 100/2/1 91/2/1 99/2/1
f 101/2/1 95/2/1 94/2/1
f 102/2/1 95/2/1 101/2/1
f 103/2/1 100/2/1 99/2/1
f 103/2/1 99/2/1 98/2/1
f 103/2/1 101/2/1 100/2/1
f 104/2/1 101/2/1 103/2/1
f 106/2/1 101/2/1 104/2/1
f 107/2/1 101/2/1 106/2/1
f 108/2/1 101/2/1 107/2/1
f 109/2/1 106/2/1 105/2/1
f 109/2/1 107/2/1 106/2/1
f 110/2/1 107/2/1 109/2/1
f 116/3/1 112/3/1 111/3/1
f 116/3/1 113/3/1 112/3/1
f 117/3/1 113/3/1 116/3/1
f 118/3/1 115/3/1 114/3/1
f 119/3/1 115/3/1 118/3/1
f 123/1/1 121/1/1 120/1/1
f 123/1/1 122/1/1 121/1/1
f 124/1/1 122/1/1 123/1/1
f 125/2/2 126/2/2 127/2/2
f 127/2/2 126/2/2 128/2/2
f 129/3/2 130/3/2 131/3/2
f 131/3/2 130/3/2 132/3/2
f 133/3/2 134/3/2 135/3/2
f 135/3/2 134/3/2 136/3/2
f 137/3/2 138/3/2 142/3/2
f 138/2/2 139/2/2 143/2/2
f 142/3/2 138/3/2 143/3/2
f 143/2/2 139/2/2 144/2/2
f 140/3/2 141/3/2 145/3/2
f 145/3/2 141/3/2 146/3/2
f 147/3/2 148/3/2 150/3/2
f 150/3/2 148/3/2 151/3/2
f 149/2/2 150/2/2 154/2/2
f 150/3/2 151/3/2 155/3/2
f 154/2/2 150/2/2 155/2/2
f 155/3/2 151/3/2 156/3/2
f 152/3/2 153/3/2 157/3/2
f 157/3/2 153/3/2 158/3/2
f 155/3/2 156/3/2 161/3/2
f 156/3/2 157/3/2 161/3/2
f 157/3/2 158/3/2 161/3/2
f 161/3/2 158/3/2 162/3/2
f 158/2/2 159/2/2 163/2/2
f 162/3/2 158/3/2 163/3/2
f 159/3/2 160/3/2 164/3/2
f 163/2/2 159/2/2 164/2/2
f 164/3/2 160/3/2 165/3/2
f 155/3/2 161/3/2 166/3/2
f 162/2/2 163/2/2 167/2/2
f 167/2/2 163/2/2 168/2/2
f 164/3/2 165/3/2 170/3/2
f 170/3/2 165/3/2 171/3/2
f 155/3/2 166/3/2 172/3/2
f 172/3/2 166/3/2 173/3/2
f 168/1/2 169/1/2 174/1/2
f 174/1/2 169/1/2 175/1/2
f 172/2/2 173/2/2 178/2/2
f 176/1/2 177/1/2 181/1/2
f 181/1/2 177/1/2 182/1/2
f 172/2/2 178/2/2 184/2/2
f 179/2/2 180/2/2 185/2/2
f 185/2/2 180/2/2 186/2/2
f 183/2/2 184/2/2 187/2/2
f 184/2/2 178/2/2 188/2/2
f 187/2/2 184/2/2 188/2/2
f 188/2/2 178/2/2 189/2/2
f 189/2/2 190/2/2 193/2/2
f 193/2/2 190/2/2 194/2/2
f 191/2/2 192/2/2 195/2/2
f 192/2/2 193/2/2 195/2/2
f 195/2/2 193/2/2 196/2/2
f 197/3/2 198/3/2 199/3/2
f 199/3/2 198/3/2 200/3/2
f 197/3/2 199/3/2 203/3/2
f 199/2/2 200/2/2 204/2/2
f 203/3/2 199/3/2 204/3/2
f 204/2/2 200/2/2 205/2/2
f 201/2/2 202/2/2 207/2/2
f 207/2/2 202/2/2 208/2/2
f 203/2/2 204/2/2 209/2/2
f 209/2/2 204/2/2 210/2/2
f 207/3/2 208/3/2 212/3/2
f 206/3/2 207/3/2 212/3/2
f 212/3/2 208/3/2 213/3/2
f 213/3/2 208/3/2 214/3/2
f 212/3/2 213/3/2 219/3/2
f 211/3/2 212/3/2 219/3/2
f 219/3/2 213/3/2 220/3/2
f 215/2/2 216/2/2 221/2/2
f 221/2/2 216/2/2 222/2/2
f 217/3/2 218/3/2 225/3/2
f 225/3/2 218/3/2 226/3/2
f 223/1/2 224/1/2 228/1/2
f 227/1/2 228/1/2 231/1/2
f 228/1/2 224/1/2 232/1/2
f 231/1/2 228/1/2 232/1/2
f 232/1/2 224/1/2 233/1/2
f 233/1/2 234/1/2 235/1/2
f 232/1/2 233/1/2 235/1/2
f 235/1/2 234/1/2 236/1/2
f 236/1/2 234/1/2 237/1/2
f 237/1/2 238/1/2 239/1/2
f 239/1/2 238/1/2 240/1/2
f 229/2/2 230/2/2 242/2/2
f 242/2/2 230/2/2 243/2/2
f 241/2/2 242/2/2 244/2/2
f 244/2/2 242/2/2 245/2/2
f 246/2/2 247/2/2 248/2/2
f 248/2/2 247/2/2 249/2/2
f 250/1/2 251/1/2 252/1/2
f 252/1/2 251/1/2 253/1/2
f 254/3/2 255/3/2 256/3/2
f 256/3/2 255/3/2 257/3/2
f 258/2/2 259/2/2 260/2/2
f 260/2/2 259/2/2 261/2/2
f 262/3/2 263/3/2 264/3/2
f 264/3/2 263/3/2 265/3/2
f 268/3/3 267/3/3 266/3/3
f 269/3/3 267/3/3 268/3/3
f 272/2/3 271/2/3 270/2/3
f 273/2/3 271/2/3 272/2/3
f 274/3/3 273/3/3 272/3/3
f 275/3/3 273/3/3 274/3/3
f 278/3/3 277/3/3 276/3/3
f 279/3/3 277/3/3 278/3/3
f 282/2/3 281/2/3 280/2/3
f 283/2/3 282/2/3 280/2/3
f 284/2/3 282/2/3 283/2/3
f 287/3/3 286/3/3 285/3/3
f 288/3/3 286/3/3 287/3/3
f 293/2/3 290/2/3 289/2/3
f 294/2/3 290/2/3 293/2/3
f 295/2/3 292/2/3 291/2/3
f 296/2/3 292/2/3 295/2/3
f 302/3/3 298/3/3 297/3/3
f 305/3/3 300/3/3 299/3/3
f 306/2/3 301/2/3 300/2/3
f 310/3/3 303/3/3 302/3/3
f 310/3/3 302/3/3 297/3/3
f 311/3/3 303/3/3 310/3/3
f 312/3/3 305/3/3 304/3/3
f 313/2/3 307/2/3 306/2/3
f 313/3/3 305/3/3 312/3/3
f 313/3/3 300/3/3 305/3/3
f 313/2/3 306/2/3 300/2/3
f 314/2/3 307/2/3 313/2/3
f 315/2/3 309/2/3 308/2/3
f 316/2/3 309/2/3 315/2/3
f 317/2/3 316/2/3 315/2/3
f 318/2/3 316/2/3 317/2/3
f 321/3/3 320/3/3 319/3/3
f 322/3/3 320/3/3 321/3/3
f 326/2/3 324/2/3 323/2/3
f 327/2/3 324/2/3 326/2/3
f 330/3/3 326/3/3 325/3/3
f 331/3/3 326/3/3 330/3/3
f 332/2/3 329/2/3 328/2/3
f 333/2/3 329/2/3 332/2/3
f 342/3/3 335/3/3 334/3/3
f 343/2/3 336/2/3 335/2/3
f 343/3/3 335/3/3 342/3/3
f 344/2/3 336/2/3 343/2/3
f 345/2/3 338/2/3 337/2/3
f 346/3/3 340/3/3 339/3/3
f 346/2/3 338/2/3 345/2/3
f 346/3/3 339/3/3 338/3/3
f 347/2/3 341/2/3 340/2/3
f 347/3/3 340/3/3 346/3/3
f 348/2/3 341/2/3 347/2/3
f 349/2/3 347/2/3 346/2/3
f 350/2/3 347/2/3 349/2/3
f 351/2/3 349/2/3 346/2/3
f 352/2/3 349/2/3 351/2/3
f 355/3/3 354/3/3 353/3/3
f 356/3/3 354/3/3 355/3/3
f 359/3/3 358/3/3 357/3/3
f 360/3/3 358/3/3 359/3/3
f 363/3/3 362/3/3 361/3/3
f 364/3/3 362/3/3 363/3/3
f 367/2/3 366/2/3 365/2/3
f 368/2/3 366/2/3 367/2/3
f 373/1/3 372/1/3 371/1/3
f 374/1/3 372/1/3 373/1/3
f 375/1/3 370/1/3 369/1/3
f 376/1/3 370/1/3 375/1/3
f 379/3/3 378/3/3 377/3/3
f 380/3/3 378/3/3 379/3/3
f 383/1/3 382/1/3 381/1/3
f 384/1/3 382/1/3 383/1/3
f 385/1/3 382/1/3 384/1/3
f 388/3/3 387/3/3 386/3/3
f 389/3/3 387/3/3 388/3/3
f 390/3/4 391/3/4 392/3/4
f 392/3/4 391/3/4 393/3/4
f 394/2/4 395/2/4 397/2/4
f 397/2/4 395/2/4 398/2/4
f 396/2/4 397/2/4 399/2/4
f 397/3/4 398/3/4 400/3/4
f 399/2/4 397/2/4 400/2/4
f 400/3/4 398/3/4 401/3/4
f 402/3/4 403/3/4 404/3/4
f 404/3/4 403/3/4 405/3/4
f 406/2/4 407/2/4 409/2/4
f 409/2/4 407/2/4 410/2/4
f 408/2/4 409/2/4 411/2/4
f 411/2/4 409/2/4 412/2/4
f 413/3/4 414/3/4 415/3/4
f 415/3/4 414/3/4 416/3/4
f 417/2/4 418/2/4 423/2/4
f 423/2/4 418/2/4 424/2/4
f 419/3/4 420/3/4 427/3/4
f 427/3/4 420/3/4 428/3/4
f 421/3/4 422/3/4 429/3/4
f 429/3/4 422/3/4 430/3/4
f 425/2/4 426/2/4 431/2/4
f 431/2/4 426/2/4 432/2/4
f 432/2/4 433/2/4 439/2/4
f 439/2/4 433/2/4 440/2/4
f 440/2/4 433/2/4 441/2/4
f 434/2/4 435/2/4 442/2/4
f 442/2/4 435/2/4 443/2/4
f 436/2/4 437/2/4 444/2/4
f 444/2/4 437/2/4 445/2/4
f 438/2/4 439/2/4 446/2/4
f 439/2/4 440/2/4 446/2/4
f 446/2/4 440/2/4 447/2/4
f 448/3/4 449/3/4 456/3/4
f 450/2/4 451/2/4 457/2/4
f 457/2/4 451/2/4 458/2/4
f 452/2/4 453/2/4 459/2/4
f 454/2/4 455/2/4 460/2/4
f 460/2/4 455/2/4 461/2/4
f 461/2/4 455/2/4 462/2/4
f 448/3/4 456/3/4 464/3/4
f 457/3/4 458/3/4 464/3/4
f 456/3/4 457/3/4 464/3/4
f 464/3/4 458/3/4 465/3/4
f 465/3/4 458/3/4 466/3/4
f 459/2/4 453/2/4 467/2/4
f 467/2/4 453/2/4 468/2/4
f 462/2/4 463/2/4 470/2/4
f 461/2/4 462/2/4 470/2/4
f 470/2/4 463/2/4 471/2/4
f 448/3/4 464/3/4 472/3/4
f 464/2/4 465/2/4 473/2/4
f 472/3/4 464/3/4 473/3/4
f 473/2/4 465/2/4 474/2/4
f 468/2/4 469/2/4 475/2/4
f 475/2/4 469/2/4 476/2/4
f 476/2/4 477/2/4 478/2/4
f 475/3/4 476/3/4 478/3/4
f 478/2/4 477/2/4 479/2/4
f 475/3/4 478/3/4 480/3/4
f 478/3/4 479/3/4 480/3/4
f 480/3/4 479/3/4 481/3/4
f 475/3/4 480/3/4 482/3/4
f 482/3/4 480/3/4 483/3/4
f 484/3/4 485/3/4 486/3/4
f 486/3/4 485/3/4 487/3/4
f 488/1/4 489/1/4 490/1/4
f 490/1/4 489/1/4 491/1/4
f 492/2/4 493/2/4 494/2/4
f 494/2/4 493/2/4 495/2/4
f 496/1/4 497/1/4 498/1/4
f 498/1/4 497/1/4 499/1/4
f 498/1/4 499/1/4 501/1/4
f 499/1/4 500/1/4 501/1/4
f 501/1/4 500/1/4 502/1/4
f 503/2/4 504/2/4 505/2/4
f 505/2/4 504/2/4 506/2/4
f 507/3/4 508/3/4 509/3/4
f 509/3/4 508/3/4 510/3/4
f 511/3/4 512/3/4 515/3/4
f 515/3/4 512/3/4 516/3/4
f 513/1/4 514/1/4 517/1/4
f 517/1/4 514/1/4 518/1/4
f 518/1/4 514/1/4 519/1/4
f 518/1/4 519/1/4 520/1/4
f 520/1/4 519/1/4 521/1/4
f 521/1/4 522/1/4 523/1/4
f 523/1/4 522/1/4 524/1/4
f 525/3/4 526/3/4 527/3/4
f 527/3/4 526/3/4 528/3/4
f 529/1/4 530/1/4 531/1/4
f 531/1/4 530/1/4 532/1/4
f 533/3/4 534/3/4 535/3/4
f 535/3/4 534/3/4 536/3/4
f 539/3/5 538/3/5 537/3/5
f 541/3/5 539/3/5 537/3/5
f 541/3/5 540/3/5 539/3/5
f 542/3/5 540/3/5 541/3/5
f 545/2/5 544/2/5 543/2/5
f 546/2/5 544/2/5 545/2/5
f 547/2/5 545/2/5 543/2/5
f 548/2/5 545/2/5 547/2/5
f 551/2/5 550/2/5 549/2/5
f 552/2/5 550/2/5 551/2/5
f 556/2/5 554/2/5 553/2/5
f 557/3/5 555/3/5 554/3/5
f 557/2/5 554/2/5 556/2/5
f 558/3/5 555/3/5 557/3/5
f 561/2/5 560/2/5 559/2/5
f 562/2/5 560/2/5 561/2/5
f 563/3/5 562/3/5 561/3/5
f 564/3/5 562/3/5 563/3/5
f 567/3/5 566/3/5 565/3/5
f 568/3/5 566/3/5 567/3/5
f 573/2/5 570/2/5 569/2/5
f 574/2/5 570/2/5 573/2/5
f 575/2/5 572/2/5 571/2/5
f 576/2/5 572/2/5 575/2/5
f 580/3/5 578/3/5 577/3/5
f 580/3/5 579/3/5 578/3/5
f 581/3/5 579/3/5 580/3/5
f 582/3/5 579/3/5 581/3/5
f 583/3/5 579/3/5 582/3/5
f 586/3/5 585/3/5 584/3/5
f 588/3/5 586/3/5 584/3/5
f 588/3/5 587/3/5 586/3/5
f 589/3/5 587/3/5 588/3/5
f 590/3/5 587/3/5 589/3/5
f 594/2/5 590/2/5 589/2/5
f 595/2/5 590/2/5 594/2/5
f 596/3/5 592/3/5 591/3/5
f 597/3/5 592/3/5 596/3/5
f 600/3/5 595/3/5 594/3/5
f 600/3/5 594/3/5 593/3/5
f 601/3/5 595/3/5 600/3/5
f 602/2/5 596/2/5 595/2/5
f 602/3/5 595/3/5 601/3/5
f 603/2/5 596/2/5 602/2/5
f 605/2/5 599/2/5 598/2/5
f 606/2/5 599/2/5 605/2/5
f 609/3/5 602/3/5 601/3/5
f 611/2/5 605/2/5 604/2/5
f 612/3/5 607/3/5 606/3/5
f 612/3/5 606/3/5 605/3/5
f 612/2/5 605/2/5 611/2/5
f 613/3/5 607/3/5 612/3/5
f 615/3/5 609/3/5 608/3/5
f 616/3/5 602/3/5 609/3/5
f 616/3/5 609/3/5 615/3/5
f 617/3/5 602/3/5 616/3/5
f 618/1/5 611/1/5 610/1/5
f 619/1/5 611/1/5 618/1/5
f 620/1/5 611/1/5 619/1/5
f 622/2/5 615/2/5 614/2/5
f 623/3/5 616/3/5 615/3/5
f 623/2/5 615/2/5 622/2/5
f 624/1/5 621/1/5 620/1/5
f 624/1/5 620/1/5 619/1/5
f 625/1/5 621/1/5 624/1/5
f 626/1/5 621/1/5 625/1/5
f 627/2/5 622/2/5 614/2/5
f 628/2/5 622/2/5 627/2/5
f 629/3/5 616/3/5 623/3/5
f 630/3/5 616/3/5 629/3/5
f 633/1/5 632/1/5 631/1/5
f 634/1/5 632/1/5 633/1/5
f 637/1/5 636/1/5 635/1/5
f 638/1/5 636/1/5 637/1/5
f 641/1/5 640/1/5 639/1/5
f 642/1/5 640/1/5 641/1/5
f 646/1/5 644/1/5 643/1/5
f 647/1/5 644/1/5 646/1/5
f 648/1/5 646/1/5 645/1/5
f 649/1/5 646/1/5 648/1/5
f 652/2/5 651/2/5 650/2/5
f 653/2/5 651/2/5 652/2/5
f 656/2/5 655/2/5 654/2/5
f 657/2/5 655/2/5 656/2/5
f 660/2/5 659/2/5 658/2/5
f 661/2/5 659/2/5 660/2/5
f 662/3/6 663/3/6 664/3/6
f 664/3/6 663/3/6 665/3/6
f 666/3/6 667/3/6 668/3/6
f 668/3/6 667/3/6 669/3/6
f 670/2/6 671/2/6 672/2/6
f 672/2/6 671/2/6 673/2/6
f 674/2/6 675/2/6 676/2/6
f 676/2/6 675/2/6 677/2/6
f 678/2/6 679/2/6 682/2/6
f 682/2/6 679/2/6 683/2/6
f 680/2/6 681/2/6 684/2/6
f 684/2/6 681/2/6 685/2/6
f 686/2/6 687/2/6 688/2/6
f 686/2/6 688/2/6 690/2/6
f 688/3/6 689/3/6 691/3/6
f 690/2/6 688/2/6 691/2/6
f 691/3/6 689/3/6 692/3/6
f 693/2/6 694/2/6 695/2/6
f 695/2/6 694/2/6 696/2/6
f 697/3/6 698/3/6 699/3/6
f 699/3/6 698/3/6 700/3/6
f 701/3/6 702/3/6 703/3/6
f 701/3/6 703/3/6 705/3/6
f 703/3/6 704/3/6 705/3/6
f 705/3/6 704/3/6 706/3/6
f 706/3/6 704/3/6 707/3/6
f 707/3/6 704/3/6 708/3/6
f 709/3/6 710/3/6 711/3/6
f 709/3/6 711/3/6 713/3/6
f 711/3/6 712/3/6 713/3/6
f 713/3/6 712/3/6 714/3/6
f 714/3/6 712/3/6 715/3/6
f 714/2/6 715/2/6 717/2/6
f 717/2/6 715/2/6 718/2/6
f 717/3/6 718/3/6 722/3/6
f 716/3/6 717/3/6 722/3/6
f 722/3/6 718/3/6 723/3/6
f 718/2/6 719/2/6 724/2/6
f 723/3/6 718/3/6 724/3/6
f 724/2/6 719/2/6 725/2/6
f 720/2/6 721/2/6 726/2/6
f 726/2/6 721/2/6 727/2/6
f 727/2/6 721/2/6 728/2/6
f 723/3/6 724/3/6 731/3/6
f 728/3/6 729/3/6 734/3/6
f 727/3/6 728/3/6 734/3/6
f 734/3/6 729/3/6 735/3/6
f 730/3/6 731/3/6 737/3/6
f 731/3/6 724/3/6 738/3/6
f 737/3/6 731/3/6 738/3/6
f 738/3/6 724/3/6 739/3/6
f 732/1/6 733/1/6 740/1/6
f 740/1/6 733/1/6 741/1/6
f 736/2/6 737/2/6 742/2/6
f 737/3/6 738/3/6 743/3/6
f 742/2/6 737/2/6 743/2/6
f 736/2/6 742/2/6 744/2/6
f 744/2/6 742/2/6 745/2/6
f 743/3/6 738/3/6 746/3/6
f 746/3/6 738/3/6 747/3/6
f 748/2/6 749/2/6 750/2/6
f 750/2/6 749/2/6 751/2/6
f 752/2/6 753/2/6 755/2/6
f 755/2/6 753/2/6 756/2/6
f 754/2/6 755/2/6 759/2/6
f 755/2/6 756/2/6 759/2/6
f 759/2/6 756/2/6 760/2/6
f 756/3/6 757/3/6 761/3/6
f 760/2/6 756/2/6 761/2/6
f 761/3/6 757/3/6 762/3/6
f 759/1/6 760/1/6 763/1/6
f 758/1/6 759/1/6 763/1/6
f 763/1/6 760/1/6 764/1/6
f 765/2/6 766/2/6 767/2/6
f 767/2/6 766/2/6 768/2/6
f 769/1/6 770/1/6 771/1/6
f 771/1/6 770/1/6 772/1/6
f 769/1/6 771/1/6 773/1/6
f 773/1/6 771/1/6 774/1/6
f 775/2/6 776/2/6 777/2/6
f 777/2/6 776/2/6 778/2/6
f 778/2/6 779/2/6 780/2/6
f 780/2/6 779/2/6 781/2/6
f 782/1/6 783/1/6 784/1/6
f 784/1/6 783/1/6 785/1/6
f 782/1/6 784/1/6 786/1/6
f 786/1/6 784/1/6 787/1/6
f 788/2/6 789/2/6 790/2/6
f 790/2/6 789/2/6 791/2/6
f 792/2/6 793/2/6 794/2/6
f 794/2/6 793/2/6 795/2/6
f 796/2/6 797/2/6 799/2/6
f 799/2/6 797/2/6 800/2/6
f 798/2/6 799/2/6 801/2/6
f 801/2/6 799/2/6 802/2/6
f 803/2/6 804/2/6 805/2/6
f 805/2/6 804/2/6 806/2/6
