# MagicaVoxel @ Ephtracy

# material
mtllib player_torso_s-02.mtl
usemtl palette

# normals
vn -1 0 0
vn 1 0 0
vn 0 0 1
vn 0 0 -1
vn 0 -1 0
vn 0 1 0

# texcoords
vt 0.724609 0.5
vt 0.728516 0.5
vt 0.732422 0.5
vt 0.736328 0.5

# verts
v -1.5 3 3.5
v -1.5 3 2.5
v -1.5 3 1.5
v -1.5 3 -1.5
v -1.5 3 -2.5
v -1.5 3 -3.5
v -1.5 5 2.5
v -1.5 5 1.5
v -1.5 5 -1.5
v -1.5 5 -2.5
v -1.5 6 3.5
v -1.5 6 2.5
v -1.5 6 -2.5
v -1.5 6 -3.5
v -1.5 9 2.5
v -1.5 9 -2.5
v -1.5 10 2.5
v -1.5 10 -2.5
v 0.5 3 3.5
v 0.5 3 2.5
v 0.5 3 1.5
v 0.5 3 -1.5
v 0.5 3 -2.5
v 0.5 3 -3.5
v 0.5 5 2.5
v 0.5 5 1.5
v 0.5 5 -1.5
v 0.5 5 -2.5
v 0.5 6 3.5
v 0.5 6 2.5
v 0.5 6 -2.5
v 0.5 6 -3.5
v 0.5 7 1.5
v 0.5 7 0.5
v 0.5 7 -0.5
v 0.5 7 -1.5
v 0.5 8 1.5
v 0.5 8 0.5
v 0.5 8 -0.5
v 0.5 8 -1.5
v 0.5 9 2.5
v 0.5 9 -2.5
v 0.5 10 2.5
v 0.5 10 -2.5
v -1.5 3 3.5
v -1.5 6 3.5
v 0.5 3 3.5
v 0.5 6 3.5
v -1.5 6 2.5
v -1.5 9 2.5
v -1.5 10 2.5
v 0.5 6 2.5
v 0.5 9 2.5
v 0.5 10 2.5
v -1.5 3 1.5
v -1.5 5 1.5
v 0.5 3 1.5
v 0.5 5 1.5
v -1.5 3 -2.5
v -1.5 5 -2.5
v 0.5 3 -2.5
v 0.5 5 -2.5
v -1.5 3 2.5
v -1.5 5 2.5
v 0.5 3 2.5
v 0.5 5 2.5
v -1.5 3 -1.5
v -1.5 5 -1.5
v 0.5 3 -1.5
v 0.5 5 -1.5
v -1.5 6 -2.5
v -1.5 9 -2.5
v -1.5 10 -2.5
v 0.5 6 -2.5
v 0.5 9 -2.5
v 0.5 10 -2.5
v -1.5 3 -3.5
v -1.5 6 -3.5
v 0.5 3 -3.5
v 0.5 6 -3.5
v -1.5 3 3.5
v 0.5 3 3.5
v -1.5 3 2.5
v 0.5 3 2.5
v -1.5 3 1.5
v 0.5 3 1.5
v -1.5 3 -1.5
v 0.5 3 -1.5
v -1.5 3 -2.5
v 0.5 3 -2.5
v -1.5 3 -3.5
v 0.5 3 -3.5
v -1.5 5 2.5
v 0.5 5 2.5
v -1.5 5 1.5
v 0.5 5 1.5
v -1.5 5 -1.5
v 0.5 5 -1.5
v -1.5 5 -2.5
v 0.5 5 -2.5
v -1.5 6 3.5
v 0.5 6 3.5
v -1.5 6 2.5
v 0.5 6 2.5
v -1.5 6 -2.5
v 0.5 6 -2.5
v -1.5 6 -3.5
v 0.5 6 -3.5
v -1.5 10 2.5
v 0.5 10 2.5
v -1.5 10 -2.5
v 0.5 10 -2.5

# faces
f 7/4/1 2/4/1 1/4/1
f 8/4/1 4/4/1 3/4/1
f 9/4/1 4/4/1 8/4/1
f 10/4/1 6/4/1 5/4/1
f 11/4/1 9/4/1 8/4/1
f 11/4/1 10/4/1 9/4/1
f 11/4/1 7/4/1 1/4/1
f 11/4/1 8/4/1 7/4/1
f 12/4/1 10/4/1 11/4/1
f 13/4/1 6/4/1 10/4/1
f 13/4/1 10/4/1 12/4/1
f 14/4/1 6/4/1 13/4/1
f 15/1/1 13/1/1 12/1/1
f 16/1/1 13/1/1 15/1/1
f 17/3/1 16/3/1 15/3/1
f 18/3/1 16/3/1 17/3/1
f 19/4/2 20/4/2 25/4/2
f 21/4/2 22/4/2 26/4/2
f 26/4/2 22/4/2 27/4/2
f 23/4/2 24/4/2 28/4/2
f 26/4/2 27/4/2 29/4/2
f 27/4/2 28/4/2 29/4/2
f 19/4/2 25/4/2 29/4/2
f 25/4/2 26/4/2 29/4/2
f 29/4/2 28/4/2 30/4/2
f 28/4/2 24/4/2 31/4/2
f 30/4/2 28/4/2 31/4/2
f 31/4/2 24/4/2 32/4/2
f 30/1/2 31/1/2 33/1/2
f 33/1/2 31/1/2 34/1/2
f 34/1/2 31/1/2 35/1/2
f 35/1/2 31/1/2 36/1/2
f 30/1/2 33/1/2 37/1/2
f 33/2/2 34/2/2 37/2/2
f 34/1/2 35/1/2 38/1/2
f 37/2/2 34/2/2 38/2/2
f 35/2/2 36/2/2 39/2/2
f 38/1/2 35/1/2 39/1/2
f 36/1/2 31/1/2 40/1/2
f 39/2/2 36/2/2 40/2/2
f 38/1/2 39/1/2 41/1/2
f 37/1/2 38/1/2 41/1/2
f 39/1/2 40/1/2 41/1/2
f 30/1/2 37/1/2 41/1/2
f 40/1/2 31/1/2 42/1/2
f 41/1/2 40/1/2 42/1/2
f 41/3/2 42/3/2 43/3/2
f 43/3/2 42/3/2 44/3/2
f 47/4/3 46/4/3 45/4/3
f 48/4/3 46/4/3 47/4/3
f 52/1/3 50/1/3 49/1/3
f 53/3/3 51/3/3 50/3/3
f 53/1/3 50/1/3 52/1/3
f 54/3/3 51/3/3 53/3/3
f 57/4/3 56/4/3 55/4/3
f 58/4/3 56/4/3 57/4/3
f 61/4/3 60/4/3 59/4/3
f 62/4/3 60/4/3 61/4/3
f 63/4/4 64/4/4 65/4/4
f 65/4/4 64/4/4 66/4/4
f 67/4/4 68/4/4 69/4/4
f 69/4/4 68/4/4 70/4/4
f 71/1/4 72/1/4 74/1/4
f 72/3/4 73/3/4 75/3/4
f 74/1/4 72/1/4 75/1/4
f 75/3/4 73/3/4 76/3/4
f 77/4/4 78/4/4 79/4/4
f 79/4/4 78/4/4 80/4/4
f 83/4/5 82/4/5 81/4/5
f 84/4/5 82/4/5 83/4/5
f 87/4/5 86/4/5 85/4/5
f 88/4/5 86/4/5 87/4/5
f 91/4/5 90/4/5 89/4/5
f 92/4/5 90/4/5 91/4/5
f 95/4/5 94/4/5 93/4/5
f 96/4/5 94/4/5 95/4/5
f 99/4/5 98/4/5 97/4/5
f 100/4/5 98/4/5 99/4/5
f 101/4/6 102/4/6 103/4/6
f 103/4/6 102/4/6 104/4/6
f 105/4/6 106/4/6 107/4/6
f 107/4/6 106/4/6 108/4/6
f 109/3/6 110/3/6 111/3/6
f 111/3/6 110/3/6 112/3/6
