# MagicaVoxel @ Ephtracy

# material
mtllib player_torso_s-01.mtl
usemtl palette

# normals
vn -1 0 0
vn 1 0 0
vn 0 0 1
vn 0 0 -1
vn 0 -1 0
vn 0 1 0

# texcoords
vt 0.724609 0.5
vt 0.728516 0.5
vt 0.732422 0.5
vt 0.736328 0.5

# verts
v -1.5 3 1.5
v -1.5 3 -1.5
v -1.5 5 5.5
v -1.5 5 1.5
v -1.5 5 -1.5
v -1.5 5 -5.5
v -1.5 6 5.5
v -1.5 6 2.5
v -1.5 6 -2.5
v -1.5 6 -5.5
v -1.5 9 2.5
v -1.5 9 -2.5
v -1.5 10 2.5
v -1.5 10 -2.5
v 0.5 3 1.5
v 0.5 3 -1.5
v 0.5 5 5.5
v 0.5 5 1.5
v 0.5 5 -1.5
v 0.5 5 -5.5
v 0.5 6 5.5
v 0.5 6 2.5
v 0.5 6 -2.5
v 0.5 6 -5.5
v 0.5 7 1.5
v 0.5 7 0.5
v 0.5 7 -0.5
v 0.5 7 -1.5
v 0.5 8 1.5
v 0.5 8 0.5
v 0.5 8 -0.5
v 0.5 8 -1.5
v 0.5 9 2.5
v 0.5 9 -2.5
v 0.5 10 2.5
v 0.5 10 -2.5
v -1.5 5 5.5
v -1.5 6 5.5
v 0.5 5 5.5
v 0.5 6 5.5
v -1.5 6 2.5
v -1.5 9 2.5
v -1.5 10 2.5
v 0.5 6 2.5
v 0.5 9 2.5
v 0.5 10 2.5
v -1.5 3 1.5
v -1.5 5 1.5
v 0.5 3 1.5
v 0.5 5 1.5
v -1.5 3 -1.5
v -1.5 5 -1.5
v 0.5 3 -1.5
v 0.5 5 -1.5
v -1.5 6 -2.5
v -1.5 9 -2.5
v -1.5 10 -2.5
v 0.5 6 -2.5
v 0.5 9 -2.5
v 0.5 10 -2.5
v -1.5 5 -5.5
v -1.5 6 -5.5
v 0.5 5 -5.5
v 0.5 6 -5.5
v -1.5 3 1.5
v 0.5 3 1.5
v -1.5 3 -1.5
v 0.5 3 -1.5
v -1.5 5 5.5
v 0.5 5 5.5
v -1.5 5 1.5
v 0.5 5 1.5
v -1.5 5 -1.5
v 0.5 5 -1.5
v -1.5 5 -5.5
v 0.5 5 -5.5
v -1.5 6 5.5
v 0.5 6 5.5
v -1.5 6 2.5
v 0.5 6 2.5
v -1.5 6 -2.5
v 0.5 6 -2.5
v -1.5 6 -5.5
v 0.5 6 -5.5
v -1.5 10 2.5
v 0.5 10 2.5
v -1.5 10 -2.5
v 0.5 10 -2.5

# faces
f 4/4/1 2/4/1 1/4/1
f 5/4/1 2/4/1 4/4/1
f 7/4/1 4/4/1 3/4/1
f 7/4/1 6/4/1 5/4/1
f 7/4/1 5/4/1 4/4/1
f 8/4/1 6/4/1 7/4/1
f 9/4/1 6/4/1 8/4/1
f 10/4/1 6/4/1 9/4/1
f 11/1/1 9/1/1 8/1/1
f 12/1/1 9/1/1 11/1/1
f 13/3/1 12/3/1 11/3/1
f 14/3/1 12/3/1 13/3/1
f 15/4/2 16/4/2 18/4/2
f 18/4/2 16/4/2 19/4/2
f 17/4/2 18/4/2 21/4/2
f 19/4/2 20/4/2 21/4/2
f 18/4/2 19/4/2 21/4/2
f 21/4/2 20/4/2 22/4/2
f 22/4/2 20/4/2 23/4/2
f 23/4/2 20/4/2 24/4/2
f 22/1/2 23/1/2 25/1/2
f 25/1/2 23/1/2 26/1/2
f 26/1/2 23/1/2 27/1/2
f 27/1/2 23/1/2 28/1/2
f 22/1/2 25/1/2 29/1/2
f 25/2/2 26/2/2 29/2/2
f 26/1/2 27/1/2 30/1/2
f 29/2/2 26/2/2 30/2/2
f 27/2/2 28/2/2 31/2/2
f 30/1/2 27/1/2 31/1/2
f 28/1/2 23/1/2 32/1/2
f 31/2/2 28/2/2 32/2/2
f 30/1/2 31/1/2 33/1/2
f 29/1/2 30/1/2 33/1/2
f 31/1/2 32/1/2 33/1/2
f 22/1/2 29/1/2 33/1/2
f 32/1/2 23/1/2 34/1/2
f 33/1/2 32/1/2 34/1/2
f 33/3/2 34/3/2 35/3/2
f 35/3/2 34/3/2 36/3/2
f 39/4/3 38/4/3 37/4/3
f 40/4/3 38/4/3 39/4/3
f 44/1/3 42/1/3 41/1/3
f 45/3/3 43/3/3 42/3/3
f 45/1/3 42/1/3 44/1/3
f 46/3/3 43/3/3 45/3/3
f 49/4/3 48/4/3 47/4/3
f 50/4/3 48/4/3 49/4/3
f 51/4/4 52/4/4 53/4/4
f 53/4/4 52/4/4 54/4/4
f 55/1/4 56/1/4 58/1/4
f 56/3/4 57/3/4 59/3/4
f 58/1/4 56/1/4 59/1/4
f 59/3/4 57/3/4 60/3/4
f 61/4/4 62/4/4 63/4/4
f 63/4/4 62/4/4 64/4/4
f 67/4/5 66/4/5 65/4/5
f 68/4/5 66/4/5 67/4/5
f 71/4/5 70/4/5 69/4/5
f 72/4/5 70/4/5 71/4/5
f 75/4/5 74/4/5 73/4/5
f 76/4/5 74/4/5 75/4/5
f 77/4/6 78/4/6 79/4/6
f 79/4/6 78/4/6 80/4/6
f 81/4/6 82/4/6 83/4/6
f 83/4/6 82/4/6 84/4/6
f 85/3/6 86/3/6 87/3/6
f 87/3/6 86/3/6 88/3/6
