# MagicaVoxel @ Ephtracy

# material
mtllib player_torso_s-05.mtl
usemtl palette

# normals
vn -1 0 0
vn 1 0 0
vn 0 0 1
vn 0 0 -1
vn 0 -1 0
vn 0 1 0

# texcoords
vt 0.724609 0.5
vt 0.728516 0.5
vt 0.732422 0.5
vt 0.736328 0.5

# verts
v -1.5 3 1.5
v -1.5 3 -1.5
v -1.5 4 3.5
v -1.5 4 2.5
v -1.5 4 -2.5
v -1.5 4 -3.5
v -1.5 5 2.5
v -1.5 5 1.5
v -1.5 5 -1.5
v -1.5 5 -2.5
v -1.5 6 3.5
v -1.5 6 2.5
v -1.5 6 -2.5
v -1.5 6 -3.5
v -1.5 9 2.5
v -1.5 9 -2.5
v -1.5 10 2.5
v -1.5 10 -2.5
v 0.5 3 1.5
v 0.5 3 -1.5
v 0.5 5 2.5
v 0.5 5 1.5
v 0.5 5 -1.5
v 0.5 5 -2.5
v 0.5 6 2.5
v 0.5 6 -2.5
v 0.5 7 1.5
v 0.5 7 0.5
v 0.5 7 -0.5
v 0.5 7 -1.5
v 0.5 8 1.5
v 0.5 8 0.5
v 0.5 8 -0.5
v 0.5 8 -1.5
v 0.5 9 2.5
v 0.5 9 -2.5
v 0.5 10 2.5
v 0.5 10 -2.5
v 3.5 4 3.5
v 3.5 4 2.5
v 3.5 4 -2.5
v 3.5 4 -3.5
v 3.5 6 3.5
v 3.5 6 2.5
v 3.5 6 -2.5
v 3.5 6 -3.5
v -1.5 4 3.5
v -1.5 6 3.5
v 3.5 4 3.5
v 3.5 6 3.5
v -1.5 6 2.5
v -1.5 9 2.5
v -1.5 10 2.5
v 0.5 6 2.5
v 0.5 9 2.5
v 0.5 10 2.5
v -1.5 3 1.5
v -1.5 5 1.5
v 0.5 3 1.5
v 0.5 5 1.5
v -1.5 4 -2.5
v -1.5 5 -2.5
v 0.5 5 -2.5
v 0.5 6 -2.5
v 3.5 4 -2.5
v 3.5 6 -2.5
v -1.5 4 2.5
v -1.5 5 2.5
v 0.5 5 2.5
v 0.5 6 2.5
v 3.5 4 2.5
v 3.5 6 2.5
v -1.5 3 -1.5
v -1.5 5 -1.5
v 0.5 3 -1.5
v 0.5 5 -1.5
v -1.5 6 -2.5
v -1.5 9 -2.5
v -1.5 10 -2.5
v 0.5 6 -2.5
v 0.5 9 -2.5
v 0.5 10 -2.5
v -1.5 4 -3.5
v -1.5 6 -3.5
v 3.5 4 -3.5
v 3.5 6 -3.5
v -1.5 3 1.5
v 0.5 3 1.5
v -1.5 3 -1.5
v 0.5 3 -1.5
v -1.5 4 3.5
v 3.5 4 3.5
v -1.5 4 2.5
v 3.5 4 2.5
v -1.5 4 -2.5
v 3.5 4 -2.5
v -1.5 4 -3.5
v 3.5 4 -3.5
v -1.5 5 2.5
v 0.5 5 2.5
v -1.5 5 1.5
v 0.5 5 1.5
v -1.5 5 -1.5
v 0.5 5 -1.5
v -1.5 5 -2.5
v 0.5 5 -2.5
v -1.5 6 3.5
v 3.5 6 3.5
v -1.5 6 2.5
v 0.5 6 2.5
v 3.5 6 2.5
v -1.5 6 -2.5
v 0.5 6 -2.5
v 3.5 6 -2.5
v -1.5 6 -3.5
v 3.5 6 -3.5
v -1.5 10 2.5
v 0.5 10 2.5
v -1.5 10 -2.5
v 0.5 10 -2.5

# faces
f 7/4/1 4/4/1 3/4/1
f 8/4/1 2/4/1 1/4/1
f 9/4/1 2/4/1 8/4/1
f 10/4/1 6/4/1 5/4/1
f 11/4/1 7/4/1 3/4/1
f 11/4/1 10/4/1 9/4/1
f 11/4/1 9/4/1 8/4/1
f 11/4/1 8/4/1 7/4/1
f 12/4/1 10/4/1 11/4/1
f 13/4/1 6/4/1 10/4/1
f 13/4/1 10/4/1 12/4/1
f 14/4/1 6/4/1 13/4/1
f 15/1/1 13/1/1 12/1/1
f 16/1/1 13/1/1 15/1/1
f 17/3/1 16/3/1 15/3/1
f 18/3/1 16/3/1 17/3/1
f 19/4/2 20/4/2 22/4/2
f 22/4/2 20/4/2 23/4/2
f 21/4/2 22/4/2 25/4/2
f 23/4/2 24/4/2 25/4/2
f 22/4/2 23/4/2 25/4/2
f 25/4/2 24/4/2 26/4/2
f 25/1/2 26/1/2 27/1/2
f 27/1/2 26/1/2 28/1/2
f 28/1/2 26/1/2 29/1/2
f 29/1/2 26/1/2 30/1/2
f 25/1/2 27/1/2 31/1/2
f 27/2/2 28/2/2 31/2/2
f 28/1/2 29/1/2 32/1/2
f 31/2/2 28/2/2 32/2/2
f 29/2/2 30/2/2 33/2/2
f 32/1/2 29/1/2 33/1/2
f 30/1/2 26/1/2 34/1/2
f 33/2/2 30/2/2 34/2/2
f 32/1/2 33/1/2 35/1/2
f 31/1/2 32/1/2 35/1/2
f 33/1/2 34/1/2 35/1/2
f 25/1/2 31/1/2 35/1/2
f 34/1/2 26/1/2 36/1/2
f 35/1/2 34/1/2 36/1/2
f 35/3/2 36/3/2 37/3/2
f 37/3/2 36/3/2 38/3/2
f 39/4/2 40/4/2 43/4/2
f 43/4/2 40/4/2 44/4/2
f 41/4/2 42/4/2 45/4/2
f 45/4/2 42/4/2 46/4/2
f 49/4/3 48/4/3 47/4/3
f 50/4/3 48/4/3 49/4/3
f 54/1/3 52/1/3 51/1/3
f 55/3/3 53/3/3 52/3/3
f 55/1/3 52/1/3 54/1/3
f 56/3/3 53/3/3 55/3/3
f 59/4/3 58/4/3 57/4/3
f 60/4/3 58/4/3 59/4/3
f 63/4/3 62/4/3 61/4/3
f 65/4/3 63/4/3 61/4/3
f 65/4/3 64/4/3 63/4/3
f 66/4/3 64/4/3 65/4/3
f 67/4/4 68/4/4 69/4/4
f 67/4/4 69/4/4 71/4/4
f 69/4/4 70/4/4 71/4/4
f 71/4/4 70/4/4 72/4/4
f 73/4/4 74/4/4 75/4/4
f 75/4/4 74/4/4 76/4/4
f 77/1/4 78/1/4 80/1/4
f 78/3/4 79/3/4 81/3/4
f 80/1/4 78/1/4 81/1/4
f 81/3/4 79/3/4 82/3/4
f 83/4/4 84/4/4 85/4/4
f 85/4/4 84/4/4 86/4/4
f 89/4/5 88/4/5 87/4/5
f 90/4/5 88/4/5 89/4/5
f 93/4/5 92/4/5 91/4/5
f 94/4/5 92/4/5 93/4/5
f 97/4/5 96/4/5 95/4/5
f 98/4/5 96/4/5 97/4/5
f 101/4/5 100/4/5 99/4/5
f 102/4/5 100/4/5 101/4/5
f 105/4/5 104/4/5 103/4/5
f 106/4/5 104/4/5 105/4/5
f 107/4/6 108/4/6 109/4/6
f 109/4/6 108/4/6 110/4/6
f 110/4/6 108/4/6 111/4/6
f 112/4/6 113/4/6 115/4/6
f 113/4/6 114/4/6 115/4/6
f 115/4/6 114/4/6 116/4/6
f 117/3/6 118/3/6 119/3/6
f 119/3/6 118/3/6 120/3/6
