# MagicaVoxel @ Ephtracy

# material
mtllib pigeon-00.mtl
usemtl palette

# normals
vn -1 0 0
vn 1 0 0
vn 0 0 1
vn 0 0 -1
vn 0 -1 0
vn 0 1 0

# texcoords
vt 0.751953 0.5
vt 0.763672 0.5
vt 0.767578 0.5
vt 0.994141 0.5

# verts
v -4.5 1 0.5
v -4.5 1 -0.5
v -4.5 2 0.5
v -4.5 2 -0.5
v -3.5 1 1.5
v -3.5 1 0.5
v -3.5 1 -0.5
v -3.5 1 -1.5
v -3.5 2 2.5
v -3.5 2 1.5
v -3.5 2 0.5
v -3.5 2 -0.5
v -3.5 2 -1.5
v -3.5 2 -2.5
v -3.5 3 2.5
v -3.5 3 1.5
v -3.5 3 0.5
v -3.5 3 -0.5
v -3.5 3 -1.5
v -3.5 3 -2.5
v -3.5 4 1.5
v -3.5 4 -1.5
v -1.5 1 5.5
v -1.5 1 1.5
v -1.5 1 -1.5
v -1.5 1 -5.5
v -1.5 2 5.5
v -1.5 2 1.5
v -1.5 2 -1.5
v -1.5 2 -5.5
v -0.5 2 2.5
v -0.5 2 1.5
v -0.5 2 -1.5
v -0.5 2 -2.5
v -0.5 3 2.5
v -0.5 3 1.5
v -0.5 3 -1.5
v -0.5 3 -2.5
v 2.5 0 1.5
v 2.5 0 0.5
v 2.5 0 -0.5
v 2.5 0 -1.5
v 2.5 1 1.5
v 2.5 1 0.5
v 2.5 1 -0.5
v 2.5 1 -1.5
v -2.5 2 2.5
v -2.5 2 1.5
v -2.5 2 -1.5
v -2.5 2 -2.5
v -2.5 3 2.5
v -2.5 3 1.5
v -2.5 3 -1.5
v -2.5 3 -2.5
v -2.5 4 1.5
v -2.5 4 -1.5
v -0.5 1 5.5
v -0.5 1 4.5
v -0.5 1 -4.5
v -0.5 1 -5.5
v -0.5 2 5.5
v -0.5 2 4.5
v -0.5 2 -4.5
v -0.5 2 -5.5
v 0.5 1 4.5
v 0.5 1 3.5
v 0.5 1 -3.5
v 0.5 1 -4.5
v 0.5 2 4.5
v 0.5 2 3.5
v 0.5 2 2.5
v 0.5 2 1.5
v 0.5 2 -1.5
v 0.5 2 -2.5
v 0.5 2 -3.5
v 0.5 2 -4.5
v 0.5 3 2.5
v 0.5 3 1.5
v 0.5 3 -1.5
v 0.5 3 -2.5
v 1.5 1 3.5
v 1.5 1 1.5
v 1.5 1 -1.5
v 1.5 1 -3.5
v 1.5 2 3.5
v 1.5 2 1.5
v 1.5 2 0.5
v 1.5 2 -0.5
v 1.5 2 -1.5
v 1.5 2 -3.5
v 1.5 3 1.5
v 1.5 3 0.5
v 1.5 3 -0.5
v 1.5 3 -1.5
v 2.5 2 0.5
v 2.5 2 -0.5
v 2.5 3 0.5
v 2.5 3 -0.5
v 3.5 0 1.5
v 3.5 0 0.5
v 3.5 0 -0.5
v 3.5 0 -1.5
v 3.5 1 1.5
v 3.5 1 0.5
v 3.5 1 -0.5
v 3.5 1 -1.5
v 3.5 2 0.5
v 3.5 2 -0.5
v 4.5 1 1.5
v 4.5 1 0.5
v 4.5 1 -0.5
v 4.5 1 -1.5
v 4.5 2 1.5
v 4.5 2 0.5
v 4.5 2 -0.5
v 4.5 2 -1.5
v -1.5 1 5.5
v -1.5 2 5.5
v -0.5 1 5.5
v -0.5 2 5.5
v -0.5 1 4.5
v -0.5 2 4.5
v 0.5 1 4.5
v 0.5 2 4.5
v 0.5 1 3.5
v 0.5 2 3.5
v 1.5 1 3.5
v 1.5 2 3.5
v -3.5 2 2.5
v -3.5 3 2.5
v -2.5 2 2.5
v -2.5 3 2.5
v -0.5 2 2.5
v -0.5 3 2.5
v 0.5 2 2.5
v 0.5 3 2.5
v -3.5 1 1.5
v -3.5 2 1.5
v -3.5 3 1.5
v -3.5 4 1.5
v -2.5 2 1.5
v -2.5 3 1.5
v -2.5 4 1.5
v -1.5 1 1.5
v -1.5 2 1.5
v -0.5 2 1.5
v -0.5 3 1.5
v 0.5 2 1.5
v 0.5 3 1.5
v 1.5 1 1.5
v 1.5 2 1.5
v 1.5 3 1.5
v 2.5 0 1.5
v 2.5 1 1.5
v 3.5 0 1.5
v 3.5 1 1.5
v 4.5 1 1.5
v 4.5 2 1.5
v -4.5 1 0.5
v -4.5 2 0.5
v -3.5 1 0.5
v -3.5 2 0.5
v 1.5 2 0.5
v 1.5 3 0.5
v 2.5 2 0.5
v 2.5 3 0.5
v 2.5 0 -0.5
v 2.5 1 -0.5
v 3.5 0 -0.5
v 3.5 1 -0.5
v 3.5 2 -0.5
v 4.5 1 -0.5
v 4.5 2 -0.5
v 2.5 0 0.5
v 2.5 1 0.5
v 3.5 0 0.5
v 3.5 1 0.5
v 3.5 2 0.5
v 4.5 1 0.5
v 4.5 2 0.5
v -4.5 1 -0.5
v -4.5 2 -0.5
v -3.5 1 -0.5
v -3.5 2 -0.5
v 1.5 2 -0.5
v 1.5 3 -0.5
v 2.5 2 -0.5
v 2.5 3 -0.5
v -3.5 1 -1.5
v -3.5 2 -1.5
v -3.5 3 -1.5
v -3.5 4 -1.5
v -2.5 2 -1.5
v -2.5 3 -1.5
v -2.5 4 -1.5
v -1.5 1 -1.5
v -1.5 2 -1.5
v -0.5 2 -1.5
v -0.5 3 -1.5
v 0.5 2 -1.5
v 0.5 3 -1.5
v 1.5 1 -1.5
v 1.5 2 -1.5
v 1.5 3 -1.5
v 2.5 0 -1.5
v 2.5 1 -1.5
v 3.5 0 -1.5
v 3.5 1 -1.5
v 4.5 1 -1.5
v 4.5 2 -1.5
v -3.5 2 -2.5
v -3.5 3 -2.5
v -2.5 2 -2.5
v -2.5 3 -2.5
v -0.5 2 -2.5
v -0.5 3 -2.5
v 0.5 2 -2.5
v 0.5 3 -2.5
v 0.5 1 -3.5
v 0.5 2 -3.5
v 1.5 1 -3.5
v 1.5 2 -3.5
v -0.5 1 -4.5
v -0.5 2 -4.5
v 0.5 1 -4.5
v 0.5 2 -4.5
v -1.5 1 -5.5
v -1.5 2 -5.5
v -0.5 1 -5.5
v -0.5 2 -5.5
v 2.5 0 1.5
v 3.5 0 1.5
v 2.5 0 0.5
v 3.5 0 0.5
v 2.5 0 -0.5
v 3.5 0 -0.5
v 2.5 0 -1.5
v 3.5 0 -1.5
v -1.5 1 5.5
v -0.5 1 5.5
v -0.5 1 4.5
v 0.5 1 4.5
v 0.5 1 3.5
v 1.5 1 3.5
v -3.5 1 1.5
v -1.5 1 1.5
v 1.5 1 1.5
v 2.5 1 1.5
v 3.5 1 1.5
v 4.5 1 1.5
v -4.5 1 0.5
v -3.5 1 0.5
v -2.5 1 0.5
v 2.5 1 0.5
v 3.5 1 0.5
v 4.5 1 0.5
v -4.5 1 -0.5
v -3.5 1 -0.5
v -2.5 1 -0.5
v 2.5 1 -0.5
v 3.5 1 -0.5
v 4.5 1 -0.5
v -3.5 1 -1.5
v -1.5 1 -1.5
v 1.5 1 -1.5
v 2.5 1 -1.5
v 3.5 1 -1.5
v 4.5 1 -1.5
v 0.5 1 -3.5
v 1.5 1 -3.5
v -0.5 1 -4.5
v 0.5 1 -4.5
v -1.5 1 -5.5
v -0.5 1 -5.5
v -3.5 2 2.5
v -2.5 2 2.5
v -3.5 2 1.5
v -2.5 2 1.5
v -3.5 2 -1.5
v -2.5 2 -1.5
v -3.5 2 -2.5
v -2.5 2 -2.5
v -1.5 2 5.5
v -0.5 2 5.5
v -0.5 2 4.5
v 0.5 2 4.5
v 0.5 2 3.5
v 1.5 2 3.5
v -0.5 2 2.5
v 0.5 2 2.5
v -1.5 2 1.5
v -0.5 2 1.5
v 0.5 2 1.5
v 1.5 2 1.5
v 4.5 2 1.5
v -4.5 2 0.5
v -3.5 2 0.5
v 1.5 2 0.5
v 2.5 2 0.5
v 3.5 2 0.5
v 4.5 2 0.5
v -4.5 2 -0.5
v -3.5 2 -0.5
v 1.5 2 -0.5
v 2.5 2 -0.5
v 3.5 2 -0.5
v 4.5 2 -0.5
v -1.5 2 -1.5
v -0.5 2 -1.5
v 0.5 2 -1.5
v 1.5 2 -1.5
v 4.5 2 -1.5
v -0.5 2 -2.5
v 0.5 2 -2.5
v 0.5 2 -3.5
v 1.5 2 -3.5
v -0.5 2 -4.5
v 0.5 2 -4.5
v -1.5 2 -5.5
v -0.5 2 -5.5
v -3.5 3 2.5
v -2.5 3 2.5
v -0.5 3 2.5
v 0.5 3 2.5
v -3.5 3 1.5
v -2.5 3 1.5
v -0.5 3 1.5
v 0.5 3 1.5
v 1.5 3 1.5
v 1.5 3 0.5
v 2.5 3 0.5
v 1.5 3 -0.5
v 2.5 3 -0.5
v -3.5 3 -1.5
v -2.5 3 -1.5
v -0.5 3 -1.5
v 0.5 3 -1.5
v 1.5 3 -1.5
v -3.5 3 -2.5
v -2.5 3 -2.5
v -0.5 3 -2.5
v 0.5 3 -2.5
v -3.5 4 1.5
v -2.5 4 1.5
v -3.5 4 -1.5
v -2.5 4 -1.5

# faces
f 3/3/1 2/3/1 1/3/1
f 4/3/1 2/3/1 3/3/1
f 10/1/1 6/1/1 5/1/1
f 11/1/1 6/1/1 10/1/1
f 12/1/1 8/1/1 7/1/1
f 13/1/1 8/1/1 12/1/1
f 15/1/1 10/1/1 9/1/1
f 16/4/1 11/4/1 10/4/1
f 16/1/1 10/1/1 15/1/1
f 17/1/1 12/1/1 11/1/1
f 17/4/1 11/4/1 16/4/1
f 18/4/1 13/4/1 12/4/1
f 18/1/1 12/1/1 17/1/1
f 19/1/1 14/1/1 13/1/1
f 19/4/1 13/4/1 18/4/1
f 20/1/1 14/1/1 19/1/1
f 21/1/1 18/1/1 17/1/1
f 21/1/1 19/1/1 18/1/1
f 21/1/1 17/1/1 16/1/1
f 22/1/1 19/1/1 21/1/1
f 27/1/1 24/1/1 23/1/1
f 28/1/1 24/1/1 27/1/1
f 29/1/1 26/1/1 25/1/1
f 30/1/1 26/1/1 29/1/1
f 35/1/1 32/1/1 31/1/1
f 36/1/1 32/1/1 35/1/1
f 37/1/1 34/1/1 33/1/1
f 38/1/1 34/1/1 37/1/1
f 43/2/1 40/2/1 39/2/1
f 44/2/1 40/2/1 43/2/1
f 45/2/1 42/2/1 41/2/1
f 46/2/1 42/2/1 45/2/1
f 47/1/2 48/1/2 51/1/2
f 51/1/2 48/1/2 52/1/2
f 49/1/2 50/1/2 53/1/2
f 53/1/2 50/1/2 54/1/2
f 52/1/2 53/1/2 55/1/2
f 55/1/2 53/1/2 56/1/2
f 57/1/2 58/1/2 61/1/2
f 61/1/2 58/1/2 62/1/2
f 59/1/2 60/1/2 63/1/2
f 63/1/2 60/1/2 64/1/2
f 65/1/2 66/1/2 69/1/2
f 69/1/2 66/1/2 70/1/2
f 67/1/2 68/1/2 75/1/2
f 75/1/2 68/1/2 76/1/2
f 71/1/2 72/1/2 77/1/2
f 77/1/2 72/1/2 78/1/2
f 73/1/2 74/1/2 79/1/2
f 79/1/2 74/1/2 80/1/2
f 81/1/2 82/1/2 85/1/2
f 85/1/2 82/1/2 86/1/2
f 83/1/2 84/1/2 89/1/2
f 89/1/2 84/1/2 90/1/2
f 86/1/2 87/1/2 91/1/2
f 91/1/2 87/1/2 92/1/2
f 88/1/2 89/1/2 93/1/2
f 93/1/2 89/1/2 94/1/2
f 95/1/2 96/1/2 97/1/2
f 97/1/2 96/1/2 98/1/2
f 99/2/2 100/2/2 103/2/2
f 103/2/2 100/2/2 104/2/2
f 101/2/2 102/2/2 105/2/2
f 105/2/2 102/2/2 106/2/2
f 104/1/2 105/1/2 107/1/2
f 107/1/2 105/1/2 108/1/2
f 109/1/2 110/1/2 113/1/2
f 113/1/2 110/1/2 114/1/2
f 111/1/2 112/1/2 115/1/2
f 115/1/2 112/1/2 116/1/2
f 119/1/3 118/1/3 117/1/3
f 120/1/3 118/1/3 119/1/3
f 123/1/3 122/1/3 121/1/3
f 124/1/3 122/1/3 123/1/3
f 127/1/3 126/1/3 125/1/3
f 128/1/3 126/1/3 127/1/3
f 131/1/3 130/1/3 129/1/3
f 132/1/3 130/1/3 131/1/3
f 135/1/3 134/1/3 133/1/3
f 136/1/3 134/1/3 135/1/3
f 141/1/3 138/1/3 137/1/3
f 142/1/3 140/1/3 139/1/3
f 143/1/3 140/1/3 142/1/3
f 144/1/3 141/1/3 137/1/3
f 144/1/3 142/1/3 141/1/3
f 145/1/3 142/1/3 144/1/3
f 146/1/3 142/1/3 145/1/3
f 147/1/3 142/1/3 146/1/3
f 151/1/3 149/1/3 148/1/3
f 152/1/3 149/1/3 151/1/3
f 154/1/3 151/1/3 150/1/3
f 155/2/3 154/2/3 153/2/3
f 156/1/3 151/1/3 154/1/3
f 156/2/3 154/2/3 155/2/3
f 157/1/3 151/1/3 156/1/3
f 158/1/3 151/1/3 157/1/3
f 161/3/3 160/3/3 159/3/3
f 162/3/3 160/3/3 161/3/3
f 165/1/3 164/1/3 163/1/3
f 166/1/3 164/1/3 165/1/3
f 169/2/3 168/2/3 167/2/3
f 170/2/3 168/2/3 169/2/3
f 172/1/3 171/1/3 170/1/3
f 173/1/3 171/1/3 172/1/3
f 174/2/4 175/2/4 176/2/4
f 176/2/4 175/2/4 177/2/4
f 177/1/4 178/1/4 179/1/4
f 179/1/4 178/1/4 180/1/4
f 181/3/4 182/3/4 183/3/4
f 183/3/4 182/3/4 184/3/4
f 185/1/4 186/1/4 187/1/4
f 187/1/4 186/1/4 188/1/4
f 189/1/4 190/1/4 193/1/4
f 191/1/4 192/1/4 194/1/4
f 194/1/4 192/1/4 195/1/4
f 189/1/4 193/1/4 196/1/4
f 193/1/4 194/1/4 196/1/4
f 196/1/4 194/1/4 197/1/4
f 197/1/4 194/1/4 198/1/4
f 198/1/4 194/1/4 199/1/4
f 200/1/4 201/1/4 203/1/4
f 203/1/4 201/1/4 204/1/4
f 202/1/4 203/1/4 206/1/4
f 205/2/4 206/2/4 207/2/4
f 206/1/4 203/1/4 208/1/4
f 207/2/4 206/2/4 208/2/4
f 208/1/4 203/1/4 209/1/4
f 209/1/4 203/1/4 210/1/4
f 211/1/4 212/1/4 213/1/4
f 213/1/4 212/1/4 214/1/4
f 215/1/4 216/1/4 217/1/4
f 217/1/4 216/1/4 218/1/4
f 219/1/4 220/1/4 221/1/4
f 221/1/4 220/1/4 222/1/4
f 223/1/4 224/1/4 225/1/4
f 225/1/4 224/1/4 226/1/4
f 227/1/4 228/1/4 229/1/4
f 229/1/4 228/1/4 230/1/4
f 233/2/5 232/2/5 231/2/5
f 234/2/5 232/2/5 233/2/5
f 237/2/5 236/2/5 235/2/5
f 238/2/5 236/2/5 237/2/5
f 241/1/5 240/1/5 239/1/5
f 243/1/5 242/1/5 241/1/5
f 246/1/5 241/1/5 239/1/5
f 246/1/5 244/1/5 243/1/5
f 246/1/5 243/1/5 241/1/5
f 247/1/5 244/1/5 246/1/5
f 252/1/5 246/1/5 245/1/5
f 252/1/5 247/1/5 246/1/5
f 252/1/5 248/1/5 247/1/5
f 253/1/5 248/1/5 252/1/5
f 254/1/5 248/1/5 253/1/5
f 255/1/5 250/1/5 249/1/5
f 256/1/5 250/1/5 255/1/5
f 257/3/5 252/3/5 251/3/5
f 257/3/5 253/3/5 252/3/5
f 258/3/5 253/3/5 257/3/5
f 259/1/5 254/1/5 253/1/5
f 259/3/5 253/3/5 258/3/5
f 259/1/5 255/1/5 254/1/5
f 260/1/5 255/1/5 259/1/5
f 261/1/5 255/1/5 260/1/5
f 263/1/5 259/1/5 258/1/5
f 263/1/5 260/1/5 259/1/5
f 264/1/5 260/1/5 263/1/5
f 265/1/5 260/1/5 264/1/5
f 266/1/5 260/1/5 265/1/5
f 267/1/5 262/1/5 261/1/5
f 268/1/5 262/1/5 267/1/5
f 269/1/5 265/1/5 264/1/5
f 270/1/5 265/1/5 269/1/5
f 271/1/5 269/1/5 264/1/5
f 272/1/5 269/1/5 271/1/5
f 273/1/5 271/1/5 264/1/5
f 274/1/5 271/1/5 273/1/5
f 277/1/5 276/1/5 275/1/5
f 278/1/5 276/1/5 277/1/5
f 281/1/5 280/1/5 279/1/5
f 282/1/5 280/1/5 281/1/5
f 283/1/6 284/1/6 285/1/6
f 285/1/6 286/1/6 287/1/6
f 283/1/6 285/1/6 289/1/6
f 287/1/6 288/1/6 289/1/6
f 285/1/6 287/1/6 289/1/6
f 289/1/6 288/1/6 290/1/6
f 283/1/6 289/1/6 291/1/6
f 291/1/6 289/1/6 292/1/6
f 290/1/6 288/1/6 293/1/6
f 293/1/6 288/1/6 294/1/6
f 294/1/6 295/1/6 298/1/6
f 298/1/6 295/1/6 299/1/6
f 299/1/6 295/1/6 300/1/6
f 300/1/6 295/1/6 301/1/6
f 296/3/6 297/3/6 302/3/6
f 302/3/6 297/3/6 303/3/6
f 299/1/6 300/1/6 305/1/6
f 305/1/6 300/1/6 306/1/6
f 306/1/6 307/1/6 311/1/6
f 304/1/6 305/1/6 311/1/6
f 305/1/6 306/1/6 311/1/6
f 311/1/6 307/1/6 312/1/6
f 308/1/6 309/1/6 313/1/6
f 310/1/6 311/1/6 314/1/6
f 314/1/6 311/1/6 315/1/6
f 313/1/6 314/1/6 315/1/6
f 315/1/6 311/1/6 316/1/6
f 308/1/6 313/1/6 317/1/6
f 313/1/6 315/1/6 317/1/6
f 317/1/6 315/1/6 318/1/6
f 308/1/6 317/1/6 319/1/6
f 319/1/6 317/1/6 320/1/6
f 321/1/6 322/1/6 325/1/6
f 325/1/6 322/1/6 326/1/6
f 323/1/6 324/1/6 327/1/6
f 327/1/6 324/1/6 328/1/6
f 328/1/6 329/1/6 330/1/6
f 327/1/6 328/1/6 330/1/6
f 326/1/6 327/1/6 330/1/6
f 326/1/6 330/1/6 332/1/6
f 330/1/6 331/1/6 332/1/6
f 332/1/6 331/1/6 333/1/6
f 326/1/6 332/1/6 335/1/6
f 335/1/6 332/1/6 336/1/6
f 336/1/6 332/1/6 337/1/6
f 337/1/6 332/1/6 338/1/6
f 334/1/6 335/1/6 339/1/6
f 339/1/6 335/1/6 340/1/6
f 336/1/6 337/1/6 341/1/6
f 341/1/6 337/1/6 342/1/6
f 343/1/6 344/1/6 345/1/6
f 345/1/6 344/1/6 346/1/6
