# MagicaVoxel @ Ephtracy

# material
mtllib world.mtl
usemtl palette

# normals
vn -1 0 0
vn 1 0 0
vn 0 0 1
vn 0 0 -1
vn 0 -1 0
vn 0 1 0

# texcoords
vt 0.880859 0.5
vt 0.904297 0.5
vt 0.919922 0.5

# verts
v -50 0 50
v -50 0 -49
v -50 43 14
v -50 43 -1
v -50 60 14
v -50 60 -1
v -50 100 50
v -50 100 -49
v -29 19 -49
v -29 19 -50
v -29 24 -49
v -29 24 -50
v -28 24 -49
v -28 24 -50
v -28 25 -49
v -28 25 -50
v -24 25 -49
v -24 25 -50
v -24 28 -49
v -24 28 -50
v -22 28 -49
v -22 28 -50
v -22 30 -49
v -22 30 -50
v -21 30 -49
v -21 30 -50
v -21 33 -49
v -21 33 -50
v -20 33 -49
v -20 33 -50
v -20 39 -49
v -20 39 -50
v -16 39 -49
v -16 39 -50
v -16 47 -49
v -16 47 -50
v -15 47 -49
v -15 47 -50
v -15 52 -49
v -15 52 -50
v -13 52 -49
v -13 52 -50
v -13 58 -49
v -13 58 -50
v -10 58 -49
v -10 58 -50
v -10 62 -49
v -10 62 -50
v -4 62 -49
v -4 62 -50
v -4 63 -49
v -4 63 -50
v -2 63 -49
v -2 63 -50
v -2 65 -49
v -2 65 -50
v 1 65 -49
v 1 65 -50
v 1 67 -49
v 1 67 -50
v 4 67 -49
v 4 67 -50
v 4 76 -49
v 4 76 -50
v 6 76 -49
v 6 76 -50
v 6 80 -49
v 6 80 -50
v 9 80 -49
v 9 80 -50
v 9 82 -49
v 9 82 -50
v 9 94 -49
v 9 94 -50
v 9 100 -49
v 9 100 -50
v 10 82 -49
v 10 82 -50
v 10 83 -49
v 10 83 -50
v 10 89 -49
v 10 89 -50
v 10 94 -49
v 10 94 -50
v 11 83 -49
v 11 83 -50
v 11 89 -49
v 11 89 -50
v -27 19 -49
v -27 19 -50
v -27 23 -49
v -27 23 -50
v -23 23 -49
v -23 23 -50
v -23 25 -49
v -23 25 -50
v -21 25 -49
v -21 25 -50
v -21 27 -49
v -21 27 -50
v -18 27 -49
v -18 27 -50
v -18 30 -49
v -18 30 -50
v -12 30 -49
v -12 30 -50
v -12 34 -49
v -12 34 -50
v -10 34 -49
v -10 34 -50
v -10 37 -49
v -10 37 -50
v -6 37 -49
v -6 37 -50
v -6 40 -49
v -6 40 -50
v -5 40 -49
v -5 40 -50
v -5 42 -49
v -5 42 -50
v -4 42 -49
v -4 42 -50
v -4 45 -49
v -4 45 -50
v -1 45 -49
v -1 45 -50
v -1 52 -49
v -1 52 -50
v 0 52 -49
v 0 52 -50
v 0 53 -49
v 0 53 -50
v 5 53 -49
v 5 53 -50
v 5 55 -49
v 5 55 -50
v 7 55 -49
v 7 55 -50
v 7 62 -49
v 7 62 -50
v 11 62 -49
v 11 62 -50
v 11 68 -49
v 11 68 -50
v 14 68 -49
v 14 68 -50
v 14 76 -49
v 14 76 -50
v 14 83 -49
v 14 83 -50
v 14 100 -49
v 14 100 -50
v 16 76 -49
v 16 76 -50
v 16 83 -49
v 16 83 -50
v 50 0 50
v 50 0 -49
v 50 74 37
v 50 74 18
v 50 76 50
v 50 76 37
v 50 96 19
v 50 96 18
v 50 98 19
v 50 98 12
v 50 100 50
v 50 100 12
v 50 100 -49
v -50 0 50
v -50 100 50
v 19 93 50
v 19 100 50
v 23 85 50
v 23 93 50
v 25 80 50
v 25 85 50
v 30 80 50
v 30 82 50
v 32 81 50
v 32 82 50
v 37 81 50
v 37 82 50
v 42 76 50
v 42 82 50
v 50 0 50
v 50 76 50
v 50 100 50
v -50 0 -49
v -50 100 -49
v -29 19 -49
v -29 24 -49
v -28 24 -49
v -28 25 -49
v -27 19 -49
v -27 23 -49
v -24 25 -49
v -24 28 -49
v -23 23 -49
v -23 25 -49
v -22 28 -49
v -22 30 -49
v -21 25 -49
v -21 27 -49
v -21 30 -49
v -21 33 -49
v -20 33 -49
v -20 39 -49
v -18 27 -49
v -18 30 -49
v -16 39 -49
v -16 47 -49
v -15 47 -49
v -15 52 -49
v -13 52 -49
v -13 58 -49
v -12 30 -49
v -12 34 -49
v -10 34 -49
v -10 37 -49
v -10 58 -49
v -10 62 -49
v -6 37 -49
v -6 40 -49
v -5 40 -49
v -5 42 -49
v -4 42 -49
v -4 45 -49
v -4 62 -49
v -4 63 -49
v -2 63 -49
v -2 65 -49
v -1 45 -49
v -1 52 -49
v 0 52 -49
v 0 53 -49
v 1 65 -49
v 1 67 -49
v 4 67 -49
v 4 76 -49
v 5 53 -49
v 5 55 -49
v 6 76 -49
v 6 80 -49
v 7 55 -49
v 7 62 -49
v 9 80 -49
v 9 82 -49
v 9 94 -49
v 9 100 -49
v 10 82 -49
v 10 83 -49
v 10 89 -49
v 10 94 -49
v 11 62 -49
v 11 68 -49
v 11 83 -49
v 11 89 -49
v 14 68 -49
v 14 76 -49
v 14 83 -49
v 14 100 -49
v 16 76 -49
v 16 83 -49
v 50 0 -49
v 50 100 -49
v -29 19 -50
v -29 24 -50
v -28 24 -50
v -28 25 -50
v -27 19 -50
v -27 23 -50
v -24 25 -50
v -24 28 -50
v -23 23 -50
v -23 25 -50
v -22 28 -50
v -22 30 -50
v -21 25 -50
v -21 27 -50
v -21 30 -50
v -21 33 -50
v -20 33 -50
v -20 39 -50
v -18 27 -50
v -18 30 -50
v -16 39 -50
v -16 47 -50
v -15 47 -50
v -15 52 -50
v -13 52 -50
v -13 58 -50
v -12 30 -50
v -12 34 -50
v -10 34 -50
v -10 37 -50
v -10 58 -50
v -10 62 -50
v -6 37 -50
v -6 40 -50
v -5 40 -50
v -5 42 -50
v -4 42 -50
v -4 45 -50
v -4 62 -50
v -4 63 -50
v -2 63 -50
v -2 65 -50
v -1 45 -50
v -1 52 -50
v 0 52 -50
v 0 53 -50
v 1 65 -50
v 1 67 -50
v 4 67 -50
v 4 76 -50
v 5 53 -50
v 5 55 -50
v 6 76 -50
v 6 80 -50
v 7 55 -50
v 7 62 -50
v 9 80 -50
v 9 82 -50
v 9 94 -50
v 9 100 -50
v 10 82 -50
v 10 83 -50
v 10 89 -50
v 10 94 -50
v 11 62 -50
v 11 68 -50
v 11 83 -50
v 11 89 -50
v 14 68 -50
v 14 76 -50
v 14 83 -50
v 14 100 -50
v 16 76 -50
v 16 83 -50
v -50 0 50
v 50 0 50
v -50 0 -49
v 50 0 -49
v -29 19 -49
v -27 19 -49
v -29 19 -50
v -27 19 -50
v -27 23 -49
v -23 23 -49
v -27 23 -50
v -23 23 -50
v -23 25 -49
v -21 25 -49
v -23 25 -50
v -21 25 -50
v -21 27 -49
v -18 27 -49
v -21 27 -50
v -18 27 -50
v -18 30 -49
v -12 30 -49
v -18 30 -50
v -12 30 -50
v -12 34 -49
v -10 34 -49
v -12 34 -50
v -10 34 -50
v -10 37 -49
v -6 37 -49
v -10 37 -50
v -6 37 -50
v -6 40 -49
v -5 40 -49
v -6 40 -50
v -5 40 -50
v -5 42 -49
v -4 42 -49
v -5 42 -50
v -4 42 -50
v -4 45 -49
v -1 45 -49
v -4 45 -50
v -1 45 -50
v -1 52 -49
v 0 52 -49
v -1 52 -50
v 0 52 -50
v 0 53 -49
v 5 53 -49
v 0 53 -50
v 5 53 -50
v 5 55 -49
v 7 55 -49
v 5 55 -50
v 7 55 -50
v 7 62 -49
v 11 62 -49
v 7 62 -50
v 11 62 -50
v 11 68 -49
v 14 68 -49
v 11 68 -50
v 14 68 -50
v 14 76 -49
v 16 76 -49
v 14 76 -50
v 16 76 -50
v 10 89 -49
v 11 89 -49
v 10 89 -50
v 11 89 -50
v 9 94 -49
v 10 94 -49
v 9 94 -50
v 10 94 -50
v -29 24 -49
v -28 24 -49
v -29 24 -50
v -28 24 -50
v -28 25 -49
v -24 25 -49
v -28 25 -50
v -24 25 -50
v -24 28 -49
v -22 28 -49
v -24 28 -50
v -22 28 -50
v -22 30 -49
v -21 30 -49
v -22 30 -50
v -21 30 -50
v -21 33 -49
v -20 33 -49
v -21 33 -50
v -20 33 -50
v -20 39 -49
v -16 39 -49
v -20 39 -50
v -16 39 -50
v -16 47 -49
v -15 47 -49
v -16 47 -50
v -15 47 -50
v -15 52 -49
v -13 52 -49
v -15 52 -50
v -13 52 -50
v -13 58 -49
v -10 58 -49
v -13 58 -50
v -10 58 -50
v -10 62 -49
v -4 62 -49
v -10 62 -50
v -4 62 -50
v -4 63 -49
v -2 63 -49
v -4 63 -50
v -2 63 -50
v -2 65 -49
v 1 65 -49
v -2 65 -50
v 1 65 -50
v 1 67 -49
v 4 67 -49
v 1 67 -50
v 4 67 -50
v 4 76 -49
v 6 76 -49
v 4 76 -50
v 6 76 -50
v 6 80 -49
v 9 80 -49
v 6 80 -50
v 9 80 -50
v 9 82 -49
v 10 82 -49
v 9 82 -50
v 10 82 -50
v 10 83 -49
v 11 83 -49
v 14 83 -49
v 16 83 -49
v 10 83 -50
v 11 83 -50
v 14 83 -50
v 16 83 -50
v -50 100 50
v 19 100 50
v 50 100 50
v 8 100 49
v 19 100 49
v 8 100 38
v 16 100 38
v 15 100 30
v 16 100 30
v 15 100 20
v 17 100 20
v 47 100 12
v 50 100 12
v 26 100 6
v 47 100 6
v 25 100 -0
v 26 100 -0
v 14 100 -1
v 17 100 -1
v 12 100 -8
v 14 100 -8
v 23 100 -9
v 25 100 -9
v 22 100 -13
v 23 100 -13
v 12 100 -16
v 13 100 -16
v 12 100 -18
v 13 100 -18
v 20 100 -22
v 22 100 -22
v 12 100 -32
v 13 100 -32
v 16 100 -32
v 20 100 -32
v 11 100 -33
v 13 100 -33
v 15 100 -37
v 16 100 -37
v 10 100 -38
v 11 100 -38
v 14 100 -47
v 15 100 -47
v -50 100 -49
v 9 100 -49
v 10 100 -49
v 14 100 -49
v 50 100 -49
v 9 100 -50
v 14 100 -50

# faces
f 3/1/1 2/1/1 1/1/1
f 4/1/1 2/1/1 3/1/1
f 5/1/1 3/1/1 1/1/1
f 5/2/1 4/2/1 3/2/1
f 6/1/1 2/1/1 4/1/1
f 6/2/1 4/2/1 5/2/1
f 7/1/1 5/1/1 1/1/1
f 7/1/1 6/1/1 5/1/1
f 8/1/1 2/1/1 6/1/1
f 8/1/1 6/1/1 7/1/1
f 11/3/1 10/3/1 9/3/1
f 12/3/1 10/3/1 11/3/1
f 15/3/1 14/3/1 13/3/1
f 16/3/1 14/3/1 15/3/1
f 19/3/1 18/3/1 17/3/1
f 20/3/1 18/3/1 19/3/1
f 23/3/1 22/3/1 21/3/1
f 24/3/1 22/3/1 23/3/1
f 27/3/1 26/3/1 25/3/1
f 28/3/1 26/3/1 27/3/1
f 31/3/1 30/3/1 29/3/1
f 32/3/1 30/3/1 31/3/1
f 35/3/1 34/3/1 33/3/1
f 36/3/1 34/3/1 35/3/1
f 39/3/1 38/3/1 37/3/1
f 40/3/1 38/3/1 39/3/1
f 43/3/1 42/3/1 41/3/1
f 44/3/1 42/3/1 43/3/1
f 47/3/1 46/3/1 45/3/1
f 48/3/1 46/3/1 47/3/1
f 51/3/1 50/3/1 49/3/1
f 52/3/1 50/3/1 51/3/1
f 55/3/1 54/3/1 53/3/1
f 56/3/1 54/3/1 55/3/1
f 59/3/1 58/3/1 57/3/1
f 60/3/1 58/3/1 59/3/1
f 63/3/1 62/3/1 61/3/1
f 64/3/1 62/3/1 63/3/1
f 67/3/1 66/3/1 65/3/1
f 68/3/1 66/3/1 67/3/1
f 71/3/1 70/3/1 69/3/1
f 72/3/1 70/3/1 71/3/1
f 75/3/1 74/3/1 73/3/1
f 76/3/1 74/3/1 75/3/1
f 79/3/1 78/3/1 77/3/1
f 80/3/1 78/3/1 79/3/1
f 83/3/1 82/3/1 81/3/1
f 84/3/1 82/3/1 83/3/1
f 87/3/1 86/3/1 85/3/1
f 88/3/1 86/3/1 87/3/1
f 89/3/2 90/3/2 91/3/2
f 91/3/2 90/3/2 92/3/2
f 93/3/2 94/3/2 95/3/2
f 95/3/2 94/3/2 96/3/2
f 97/3/2 98/3/2 99/3/2
f 99/3/2 98/3/2 100/3/2
f 101/3/2 102/3/2 103/3/2
f 103/3/2 102/3/2 104/3/2
f 105/3/2 106/3/2 107/3/2
f 107/3/2 106/3/2 108/3/2
f 109/3/2 110/3/2 111/3/2
f 111/3/2 110/3/2 112/3/2
f 113/3/2 114/3/2 115/3/2
f 115/3/2 114/3/2 116/3/2
f 117/3/2 118/3/2 119/3/2
f 119/3/2 118/3/2 120/3/2
f 121/3/2 122/3/2 123/3/2
f 123/3/2 122/3/2 124/3/2
f 125/3/2 126/3/2 127/3/2
f 127/3/2 126/3/2 128/3/2
f 129/3/2 130/3/2 131/3/2
f 131/3/2 130/3/2 132/3/2
f 133/3/2 134/3/2 135/3/2
f 135/3/2 134/3/2 136/3/2
f 137/3/2 138/3/2 139/3/2
f 139/3/2 138/3/2 140/3/2
f 141/3/2 142/3/2 143/3/2
f 143/3/2 142/3/2 144/3/2
f 145/3/2 146/3/2 147/3/2
f 147/3/2 146/3/2 148/3/2
f 149/3/2 150/3/2 151/3/2
f 151/3/2 150/3/2 152/3/2
f 153/3/2 154/3/2 155/3/2
f 155/3/2 154/3/2 156/3/2
f 157/1/2 158/1/2 159/1/2
f 159/1/2 158/1/2 160/1/2
f 157/1/2 159/1/2 161/1/2
f 159/3/2 160/3/2 162/3/2
f 161/1/2 159/1/2 162/1/2
f 161/3/2 162/3/2 163/3/2
f 162/3/2 160/3/2 163/3/2
f 160/1/2 158/1/2 164/1/2
f 163/3/2 160/3/2 164/3/2
f 161/3/2 163/3/2 165/3/2
f 163/1/2 164/1/2 165/1/2
f 164/1/2 158/1/2 166/1/2
f 165/1/2 164/1/2 166/1/2
f 161/3/2 165/3/2 167/3/2
f 165/3/2 166/3/2 167/3/2
f 166/1/2 158/1/2 168/1/2
f 167/3/2 166/3/2 168/3/2
f 168/1/2 158/1/2 169/1/2
f 172/1/3 171/1/3 170/1/3
f 173/1/3 171/1/3 172/1/3
f 174/1/3 172/1/3 170/1/3
f 175/3/3 173/3/3 172/3/3
f 175/1/3 172/1/3 174/1/3
f 176/1/3 174/1/3 170/1/3
f 177/3/3 175/3/3 174/3/3
f 177/1/3 174/1/3 176/1/3
f 178/1/3 176/1/3 170/1/3
f 178/3/3 177/3/3 176/3/3
f 179/3/3 177/3/3 178/3/3
f 180/1/3 179/1/3 178/1/3
f 181/3/3 177/3/3 179/3/3
f 181/1/3 179/1/3 180/1/3
f 182/1/3 180/1/3 178/1/3
f 182/3/3 181/3/3 180/3/3
f 183/3/3 177/3/3 181/3/3
f 183/3/3 181/3/3 182/3/3
f 184/1/3 178/1/3 170/1/3
f 184/1/3 182/1/3 178/1/3
f 184/1/3 183/1/3 182/1/3
f 185/3/3 177/3/3 183/3/3
f 185/1/3 183/1/3 184/1/3
f 186/1/3 184/1/3 170/1/3
f 187/3/3 185/3/3 184/3/3
f 187/1/3 184/1/3 186/1/3
f 188/3/3 173/3/3 175/3/3
f 188/3/3 185/3/3 187/3/3
f 188/3/3 175/3/3 177/3/3
f 188/3/3 177/3/3 185/3/3
f 189/1/4 190/1/4 191/1/4
f 191/1/4 190/1/4 192/1/4
f 192/1/4 190/1/4 193/1/4
f 193/1/4 190/1/4 194/1/4
f 189/1/4 191/1/4 195/1/4
f 194/1/4 190/1/4 197/1/4
f 197/1/4 190/1/4 198/1/4
f 195/1/4 196/1/4 199/1/4
f 198/1/4 190/1/4 201/1/4
f 201/1/4 190/1/4 202/1/4
f 199/1/4 200/1/4 203/1/4
f 202/1/4 190/1/4 205/1/4
f 205/1/4 190/1/4 206/1/4
f 206/1/4 190/1/4 207/1/4
f 207/1/4 190/1/4 208/1/4
f 203/1/4 204/1/4 209/1/4
f 208/1/4 190/1/4 211/1/4
f 211/1/4 190/1/4 212/1/4
f 212/1/4 190/1/4 213/1/4
f 213/1/4 190/1/4 214/1/4
f 214/1/4 190/1/4 215/1/4
f 215/1/4 190/1/4 216/1/4
f 209/1/4 210/1/4 217/1/4
f 217/1/4 218/1/4 219/1/4
f 216/1/4 190/1/4 221/1/4
f 221/1/4 190/1/4 222/1/4
f 219/1/4 220/1/4 223/1/4
f 223/1/4 224/1/4 225/1/4
f 225/1/4 226/1/4 227/1/4
f 222/1/4 190/1/4 229/1/4
f 229/1/4 190/1/4 230/1/4
f 230/1/4 190/1/4 231/1/4
f 231/1/4 190/1/4 232/1/4
f 227/1/4 228/1/4 233/1/4
f 233/1/4 234/1/4 235/1/4
f 232/1/4 190/1/4 237/1/4
f 237/1/4 190/1/4 238/1/4
f 238/1/4 190/1/4 239/1/4
f 239/1/4 190/1/4 240/1/4
f 235/1/4 236/1/4 241/1/4
f 240/1/4 190/1/4 243/1/4
f 243/1/4 190/1/4 244/1/4
f 241/1/4 242/1/4 245/1/4
f 244/1/4 190/1/4 247/1/4
f 247/1/4 190/1/4 248/1/4
f 248/1/4 190/1/4 249/1/4
f 249/1/4 190/1/4 250/1/4
f 248/1/4 249/1/4 251/1/4
f 251/1/4 249/1/4 252/1/4
f 252/1/4 249/1/4 253/1/4
f 253/1/4 249/1/4 254/1/4
f 245/1/4 246/1/4 255/1/4
f 252/1/4 253/1/4 257/1/4
f 257/1/4 253/1/4 258/1/4
f 255/1/4 256/1/4 259/1/4
f 259/1/4 260/1/4 263/1/4
f 261/1/4 262/1/4 264/1/4
f 259/1/4 263/1/4 265/1/4
f 263/1/4 264/1/4 265/1/4
f 189/1/4 195/1/4 265/1/4
f 195/1/4 199/1/4 265/1/4
f 199/1/4 203/1/4 265/1/4
f 245/1/4 255/1/4 265/1/4
f 255/1/4 259/1/4 265/1/4
f 203/1/4 209/1/4 265/1/4
f 209/1/4 217/1/4 265/1/4
f 217/1/4 219/1/4 265/1/4
f 241/1/4 245/1/4 265/1/4
f 219/1/4 223/1/4 265/1/4
f 235/1/4 241/1/4 265/1/4
f 223/1/4 225/1/4 265/1/4
f 225/1/4 227/1/4 265/1/4
f 233/1/4 235/1/4 265/1/4
f 227/1/4 233/1/4 265/1/4
f 264/1/4 262/1/4 266/1/4
f 265/1/4 264/1/4 266/1/4
f 267/3/4 268/3/4 269/3/4
f 267/3/4 269/3/4 271/3/4
f 269/3/4 270/3/4 271/3/4
f 271/3/4 270/3/4 272/3/4
f 272/3/4 270/3/4 273/3/4
f 272/3/4 273/3/4 275/3/4
f 273/3/4 274/3/4 275/3/4
f 275/3/4 274/3/4 276/3/4
f 276/3/4 274/3/4 277/3/4
f 276/3/4 277/3/4 279/3/4
f 277/3/4 278/3/4 279/3/4
f 279/3/4 278/3/4 280/3/4
f 280/3/4 278/3/4 281/3/4
f 281/3/4 282/3/4 283/3/4
f 280/3/4 281/3/4 283/3/4
f 280/3/4 283/3/4 285/3/4
f 283/3/4 284/3/4 285/3/4
f 285/3/4 284/3/4 286/3/4
f 286/3/4 284/3/4 287/3/4
f 287/3/4 288/3/4 289/3/4
f 289/3/4 290/3/4 291/3/4
f 286/3/4 287/3/4 293/3/4
f 291/3/4 292/3/4 293/3/4
f 289/3/4 291/3/4 293/3/4
f 287/3/4 289/3/4 293/3/4
f 293/3/4 292/3/4 294/3/4
f 294/3/4 292/3/4 295/3/4
f 295/3/4 292/3/4 296/3/4
f 296/3/4 292/3/4 297/3/4
f 297/3/4 298/3/4 299/3/4
f 296/3/4 297/3/4 299/3/4
f 299/3/4 298/3/4 300/3/4
f 300/3/4 298/3/4 301/3/4
f 301/3/4 298/3/4 302/3/4
f 302/3/4 298/3/4 303/3/4
f 303/3/4 298/3/4 304/3/4
f 304/3/4 298/3/4 305/3/4
f 305/3/4 306/3/4 307/3/4
f 304/3/4 305/3/4 307/3/4
f 304/3/4 307/3/4 309/3/4
f 307/3/4 308/3/4 309/3/4
f 309/3/4 308/3/4 310/3/4
f 310/3/4 308/3/4 311/3/4
f 311/3/4 308/3/4 312/3/4
f 312/3/4 308/3/4 313/3/4
f 313/3/4 314/3/4 315/3/4
f 312/3/4 313/3/4 317/3/4
f 315/3/4 316/3/4 317/3/4
f 313/3/4 315/3/4 317/3/4
f 317/3/4 316/3/4 318/3/4
f 318/3/4 316/3/4 319/3/4
f 318/3/4 319/3/4 321/3/4
f 319/3/4 320/3/4 321/3/4
f 321/3/4 320/3/4 322/3/4
f 322/3/4 320/3/4 323/3/4
f 323/3/4 324/3/4 327/3/4
f 325/3/4 326/3/4 330/3/4
f 322/3/4 323/3/4 331/3/4
f 327/3/4 328/3/4 331/3/4
f 323/3/4 327/3/4 331/3/4
f 331/3/4 328/3/4 332/3/4
f 332/3/4 328/3/4 333/3/4
f 329/3/4 330/3/4 334/3/4
f 332/3/4 333/3/4 335/3/4
f 333/3/4 334/3/4 335/3/4
f 335/3/4 334/3/4 336/3/4
f 336/3/4 334/3/4 337/3/4
f 334/3/4 330/3/4 338/3/4
f 337/3/4 334/3/4 338/3/4
f 330/3/4 326/3/4 338/3/4
f 336/3/4 337/3/4 339/3/4
f 339/3/4 337/3/4 340/3/4
f 343/1/5 342/1/5 341/1/5
f 344/1/5 342/1/5 343/1/5
f 347/3/5 346/3/5 345/3/5
f 348/3/5 346/3/5 347/3/5
f 351/3/5 350/3/5 349/3/5
f 352/3/5 350/3/5 351/3/5
f 355/3/5 354/3/5 353/3/5
f 356/3/5 354/3/5 355/3/5
f 359/3/5 358/3/5 357/3/5
f 360/3/5 358/3/5 359/3/5
f 363/3/5 362/3/5 361/3/5
f 364/3/5 362/3/5 363/3/5
f 367/3/5 366/3/5 365/3/5
f 368/3/5 366/3/5 367/3/5
f 371/3/5 370/3/5 369/3/5
f 372/3/5 370/3/5 371/3/5
f 375/3/5 374/3/5 373/3/5
f 376/3/5 374/3/5 375/3/5
f 379/3/5 378/3/5 377/3/5
f 380/3/5 378/3/5 379/3/5
f 383/3/5 382/3/5 381/3/5
f 384/3/5 382/3/5 383/3/5
f 387/3/5 386/3/5 385/3/5
f 388/3/5 386/3/5 387/3/5
f 391/3/5 390/3/5 389/3/5
f 392/3/5 390/3/5 391/3/5
f 395/3/5 394/3/5 393/3/5
f 396/3/5 394/3/5 395/3/5
f 399/3/5 398/3/5 397/3/5
f 400/3/5 398/3/5 399/3/5
f 403/3/5 402/3/5 401/3/5
f 404/3/5 402/3/5 403/3/5
f 407/3/5 406/3/5 405/3/5
f 408/3/5 406/3/5 407/3/5
f 411/3/5 410/3/5 409/3/5
f 412/3/5 410/3/5 411/3/5
f 415/3/5 414/3/5 413/3/5
f 416/3/5 414/3/5 415/3/5
f 417/3/6 418/3/6 419/3/6
f 419/3/6 418/3/6 420/3/6
f 421/3/6 422/3/6 423/3/6
f 423/3/6 422/3/6 424/3/6
f 425/3/6 426/3/6 427/3/6
f 427/3/6 426/3/6 428/3/6
f 429/3/6 430/3/6 431/3/6
f 431/3/6 430/3/6 432/3/6
f 433/3/6 434/3/6 435/3/6
f 435/3/6 434/3/6 436/3/6
f 437/3/6 438/3/6 439/3/6
f 439/3/6 438/3/6 440/3/6
f 441/3/6 442/3/6 443/3/6
f 443/3/6 442/3/6 444/3/6
f 445/3/6 446/3/6 447/3/6
f 447/3/6 446/3/6 448/3/6
f 449/3/6 450/3/6 451/3/6
f 451/3/6 450/3/6 452/3/6
f 453/3/6 454/3/6 455/3/6
f 455/3/6 454/3/6 456/3/6
f 457/3/6 458/3/6 459/3/6
f 459/3/6 458/3/6 460/3/6
f 461/3/6 462/3/6 463/3/6
f 463/3/6 462/3/6 464/3/6
f 465/3/6 466/3/6 467/3/6
f 467/3/6 466/3/6 468/3/6
f 469/3/6 470/3/6 471/3/6
f 471/3/6 470/3/6 472/3/6
f 473/3/6 474/3/6 475/3/6
f 475/3/6 474/3/6 476/3/6
f 477/3/6 478/3/6 479/3/6
f 479/3/6 478/3/6 480/3/6
f 481/3/6 482/3/6 485/3/6
f 485/3/6 482/3/6 486/3/6
f 483/3/6 484/3/6 487/3/6
f 487/3/6 484/3/6 488/3/6
f 489/1/6 490/1/6 492/1/6
f 490/3/6 491/3/6 493/3/6
f 492/1/6 490/1/6 493/1/6
f 489/1/6 492/1/6 494/1/6
f 492/3/6 493/3/6 494/3/6
f 494/3/6 493/3/6 495/3/6
f 494/1/6 495/1/6 496/1/6
f 495/3/6 493/3/6 497/3/6
f 496/1/6 495/1/6 497/1/6
f 494/1/6 496/1/6 498/1/6
f 496/3/6 497/3/6 498/3/6
f 497/3/6 493/3/6 499/3/6
f 498/3/6 497/3/6 499/3/6
f 493/3/6 491/3/6 500/3/6
f 499/3/6 493/3/6 500/3/6
f 500/3/6 491/3/6 501/3/6
f 499/3/6 500/3/6 502/3/6
f 500/1/6 501/1/6 503/1/6
f 502/3/6 500/3/6 503/3/6
f 499/3/6 502/3/6 504/3/6
f 502/1/6 503/1/6 505/1/6
f 504/3/6 502/3/6 505/3/6
f 498/1/6 499/1/6 506/1/6
f 494/1/6 498/1/6 506/1/6
f 499/3/6 504/3/6 507/3/6
f 506/1/6 499/1/6 507/1/6
f 494/1/6 506/1/6 508/1/6
f 506/3/6 507/3/6 509/3/6
f 508/1/6 506/1/6 509/1/6
f 507/3/6 504/3/6 510/3/6
f 509/3/6 507/3/6 510/3/6
f 508/3/6 509/3/6 510/3/6
f 504/1/6 505/1/6 511/1/6
f 510/3/6 504/3/6 511/3/6
f 508/3/6 510/3/6 512/3/6
f 510/1/6 511/1/6 513/1/6
f 512/3/6 510/3/6 513/3/6
f 494/1/6 508/1/6 514/1/6
f 508/3/6 512/3/6 514/3/6
f 514/3/6 512/3/6 515/3/6
f 494/1/6 514/1/6 516/1/6
f 514/1/6 515/1/6 516/1/6
f 515/3/6 512/3/6 517/3/6
f 516/1/6 515/1/6 517/1/6
f 516/3/6 517/3/6 518/3/6
f 517/3/6 512/3/6 518/3/6
f 512/1/6 513/1/6 519/1/6
f 518/3/6 512/3/6 519/3/6
f 516/3/6 518/3/6 520/3/6
f 494/1/6 516/1/6 520/1/6
f 520/3/6 518/3/6 521/3/6
f 521/3/6 518/3/6 522/3/6
f 518/1/6 519/1/6 523/1/6
f 522/3/6 518/3/6 523/3/6
f 494/1/6 520/1/6 524/1/6
f 520/1/6 521/1/6 524/1/6
f 521/3/6 522/3/6 525/3/6
f 524/1/6 521/1/6 525/1/6
f 524/3/6 525/3/6 526/3/6
f 525/3/6 522/3/6 526/3/6
f 522/1/6 523/1/6 527/1/6
f 526/3/6 522/3/6 527/3/6
f 494/1/6 524/1/6 528/1/6
f 524/3/6 526/3/6 529/3/6
f 528/1/6 524/1/6 529/1/6
f 528/3/6 529/3/6 530/3/6
f 529/3/6 526/3/6 530/3/6
f 526/1/6 527/1/6 531/1/6
f 530/3/6 526/3/6 531/3/6
f 489/1/6 494/1/6 532/1/6
f 494/1/6 528/1/6 532/1/6
f 532/1/6 528/1/6 533/1/6
f 528/3/6 530/3/6 534/3/6
f 533/1/6 528/1/6 534/1/6
f 530/1/6 531/1/6 535/1/6
f 534/3/6 530/3/6 535/3/6
f 505/1/6 503/1/6 536/1/6
f 535/1/6 531/1/6 536/1/6
f 531/1/6 527/1/6 536/1/6
f 511/1/6 505/1/6 536/1/6
f 503/1/6 501/1/6 536/1/6
f 513/1/6 511/1/6 536/1/6
f 523/1/6 519/1/6 536/1/6
f 527/1/6 523/1/6 536/1/6
f 519/1/6 513/1/6 536/1/6
f 534/3/6 535/3/6 537/3/6
f 533/3/6 534/3/6 537/3/6
f 537/3/6 535/3/6 538/3/6
